<svg id="Layer_1" data-name="Layer 1" xmlns="http://www.w3.org/2000/svg" xmlns:xlink="http://www.w3.org/1999/xlink" width="1920" height="4695.0228" viewBox="0 0 1920 4695.0228"><defs><style>.cls-1{opacity:0.65;filter:url(#AI_GaussianBlur_4);}.cls-2{fill:#b0d3ec;}.cls-3{filter:url(#AI_GaussianBlur_2);}.cls-4{fill:#97caed;}</style><filter id="AI_GaussianBlur_4" name="AI_GaussianBlur_4"><feGaussianBlur stdDeviation="4"/></filter><filter id="AI_GaussianBlur_2" name="AI_GaussianBlur_2"><feGaussianBlur stdDeviation="2"/></filter></defs><g class="cls-1"><path class="cls-2" d="M1325.7446-125.4126c-.1748-.3665-49.5056,121.9408-66.3819,308.8582-6.9574,77.0581-27.2426,301.7327,12.0694,483.6836,31.4284,145.4625,68.0517,111.3642,106.6136,221.4455,89.8805,256.5792,62.7671,932.4018-22.1274,1381.121-29.5016,155.9346-65.69,282.9042-66.382,495.3389-.5256,161.3256,19.8846,229.28,34.1968,402.0982,18.0054,217.4146,7.98,381.9288-12.0695,710.9566-14.104,231.4548-41.0677,552.5245-96.5557,920.7472q19.11,20.3961,38.22,40.7928c10.6994-315.1418,30.1162-547.6876,46.4291-704.9606,7.3554-70.915,21.2527-195.6771,31.496-373.7474,10.6879-185.7988,10.5473-310.541,10.2967-354.4464-.611-107.0226-1.1156-195.4341-11.5082-308.8241-12.4276-135.5928-24.84-152.4741-29.6789-266.7121-5.33-125.8317,4.6223-225.9471,7.2684-250.92,13.0121-122.7976,30.7923-140.7739,59.3578-303.56,10.4122-59.336,16.6856-110.5457,29.6789-212.3167,8.2635-64.7251,22.104-178.6068,35.7927-326.483,6.259-67.616,9.3887-101.4241,10.6977-127.8379,1.84-37.1356,3.66-95.7692-7.029-313.5812-5.625-114.6166-8.6107-173.1254-15.0661-233.7769-9.8025-92.1-14.7039-138.1494-27.4565-182.65-31.7959-110.9526-69.2281-66.8263-103.823-164.9224-25.6346-72.6887-30.1939-168.1254-34.4683-257.5948C1245.3915,249.5748,1279.3187,82.67,1295.5283.717,1311.0534-77.7751,1325.8486-125.1945,1325.7446-125.4126Z"/></g><g class="cls-3"><path class="cls-4" d="M1420.3443-145.5189c87.2647,225.9065,99.7061,407.397,96.4429,526.7261-1.24,45.3367-5.3189,102.6357-96.4429,519.3076-52.3489,239.3689-79.207,358.9031-111.28,489.6328-84.15,342.9949-103.2349,367.9295-90.2549,455.5974,29.7585,200.9908,147.9016,190.337,208.9536,419.8067,51.33,192.93-24.4387,227.0376,14.8374,534.1445,25.8777,202.3428,63.0757,211.2788,51.9307,326.4219-20.1861,208.5513-147.585,234.69-207.7229,422.8647-84.7957,265.33,110.4582,394.9532,111.28,771.5425.29,132.772-23.5654,306.7979-118.6989,511.8892q7.853,3.6072,15.7063,7.2148c6.0053-18.0537,15.2475-45.333,27.1023-78.2954,57.5471-160.0117,72.3484-163.9053,87.3291-227.8589,12.9611-55.3325,10.9831-115.1836,7.0266-234.8857-1.8045-54.5962-3.0908-93.5161-11.0418-147.5567-11.34-77.0742-21.644-85.7275-26.0984-150.5678-4.0319-58.6924,2.9573-72.7593-9.0339-109.4121-15.1484-46.3033-35.6279-52.3565-56.2119-92.3487-34.3611-66.7593-22.2317-137.2007-14.0532-184.6963,10.4914-60.9287,32.0288-100.875,71.2688-173.6547,51.1333-94.8389,67.143-93.4288,98.3711-165.6246,19.9441-46.1084,43.1345-99.7216,43.1626-170.6435.0168-42.8589-7.23-40.9868-22.0833-147.5562-13.8672-99.4941-5.3606-89.6108-17.41-157.0849-13.3633-74.8325-26.3989-101.3955-21.7378-148.0659.8057-8.0665,2.7429-34.4688,7.0186-73.7823,1.2375-11.3789,2.3442-25.2568,3.0192-43.6606.4273-11.65.3841-29.6538-3.0112-109.4126-2.78-65.293-4.1692-97.9395-5.019-105.3975-5.7649-50.59-27.5157-101.0171-71.2686-199.7529-40.7051-91.8579-61.0576-137.7871-78.418-158.9243-29.6076-36.0493-61.3193-60.3384-66.59-106.2442-3.4007-29.6171,5.9965-52.6274,11.8413-67.665,3.4621-8.9077,21.9726-76.731,58.9936-212.377,10.6436-38.9982,6.1729-31.7753,39.0405-237.7419,16.2561-101.8686,25.377-152.63,30.1136-182.689,20.6779-131.226,38.7-145.3305,74.28-305.1506,30.0381-134.9248,13.51-108.3257,46.1743-266.0029,39.4685-190.522,66.2957-242.3709,47.1778-342.2908-9.4141-49.2031-19.0191-52.8325-38.1438-134.5071a1238.5677,1238.5677,0,0,1-31.1172-220.8327Z"/></g></svg>