<svg id="Layer_1" data-name="Layer 1" xmlns="http://www.w3.org/2000/svg" xmlns:xlink="http://www.w3.org/1999/xlink" width="1920" height="8065.3415" viewBox="0 0 1920 8065.3415"><defs><style>.cls-1{opacity:0.65;filter:url(#AI_GaussianBlur_4);}.cls-2{fill:#b0d3ec;}.cls-3{filter:url(#AI_GaussianBlur_2);}</style><filter id="AI_GaussianBlur_4" name="AI_GaussianBlur_4"><feGaussianBlur stdDeviation="4"/></filter><filter id="AI_GaussianBlur_2" name="AI_GaussianBlur_2"><feGaussianBlur stdDeviation="2"/></filter></defs><g class="cls-1"><path class="cls-2" d="M1575.0328-27.2278c-40.9317,23.93-100.096,60.2039-168.6384,108.6146-143.9383,101.6618-216.2483,153.9589-232.9495,225.804-16.5466,71.18,29.09,82.2562,57.1655,231.5205,27.0784,143.9652-8.44,170.5344,15.72,295.8318,30.0886,156.0391,90.799,144.0019,114.331,271.5363,30.802,166.9364-46.9292,330.0293-101.4687,444.4622-59.9292,125.7413-112.8189,176.9117-110.0437,285.8277,1.4355,56.34,16.3437,72.3182,38.5866,167.2093,30.5606,130.375,19.9844,175.1526,35.7286,297.261,35.4482,274.9284,118.5522,276.6513,97.1814,417.3086-22.3431,147.0568-114.3416,152.811-125.7642,305.8356-7.9556,106.5767,34.43,133.7994,50.02,274.3948,9.5176,85.8308,1.7588,148.1692-28.5828,318.698-92.3606,519.096-129.3491,553.4158-98.6106,680.27,37.1038,153.123,102.7019,151.4223,118.6187,298.69,18.7148,173.1577-62.4173,263.9478-107.1856,420.167-47.4546,165.5928-5.966,343.6968,78.9478,693.146,105.872,435.6992,157.0737,441.2315,245.06,808.4458,108.0044,450.7588,96.89,718.021,93.4765,783.1821-21.1928,404.5562-141.5153,577.6163-186.9531,636.6514-73.5615,95.5752-154.8525,157.34-212.217,194.5322q9.387,4.2774,18.7741,8.5557c59.3685-37.2041,149.6744-104.5156,224.3169-215.4258,73.9475-109.8769,98.19-211.5307,126.52-330.3208,8.4949-35.62,36.9121-160.397,42.4014-337.1592,5.2724-169.7754-13.4973-294.4087-36.2464-440.4272-10.1657-65.251-41.3581-253.2988-115.5778-501.2935-58.9034-196.8169-67.4349-172.5278-130.6236-381.6123-61.0962-202.16-86.4392-335.1152-122.4167-523.8618-40.0078-209.89-38.6043-256.647-31.4593-302.2807,22.6055-144.378,82.7767-150.376,111.4746-310.4878,14.69-81.959,39.1534-218.4439-25.3039-346.05-31.9131-63.1783-66.4353-86.1944-78.6477-159.3467-9.0061-53.9463,2.2473-86.48,17.0972-173.709,18.3408-107.7358,8.2024-99.3911,25.988-223.6333,16.1553-112.8525,23.9338-115.6436,66.3376-336.4751,36.2295-188.6773,36.8814-219.6062,27.3558-260.5632-14.5882-62.7244-37.7854-83.3518-51.9759-172.3411-9.4509-59.2676-17.3471-108.7849,3.42-163.45,18.3713-48.3606,38.6464-46.711,81.3833-121.733,30.4731-53.4936,46.3225-81.3166,49.924-120.3652,4.52-49.01-14.2563-72.3049-55.3952-181.2317-22.2622-58.9453-34.6158-91.6543-44.4532-129.94-31.7107-123.4111,3.1182-147.55-21.8845-282.4477-10.8574-58.5789-17.5451-54.6758-46.5046-181.9156-20.78-91.2993-22.9331-117.9-19.833-146.353,7.1677-65.7854,38.2773-103.4477,71.125-156.6116,65.3093-105.7027,92.3239-199.5838,115.5779-280.3961,33.4328-116.1865,63.4636-220.5489,19.1489-322.1135-28.9353-66.3169-56.2974-55.1886-88.2222-127.8881-35.3882-80.586-3.6765-98.6062-24.62-271.5055-15.0869-124.5481-22.63-186.8222-47.8726-227.0524-7.4931-11.9425-26.5293-39.8078-26.6718-77.9638-.0611-16.3529,3.3166-43.0214,25.988-77.9639,45.1631-69.608,93.0732-58.2793,185.335-133.3591,52.353-42.6032,57.9682-63.3742,115.5778-99.1645a478.1324,478.1324,0,0,1,86.8545-42.4013Z"/></g><g class="cls-3"><path class="cls-2" d="M1201.0025-57.0947c-1.1926.67.3706,5.5053.5789,6.1967,4.4013,14.6051,10.383,191.2559,7.476,271.6956-6.716,185.8493-78.634,349.4517-80.5485,567.8669-2.6387,301.0128,131.2692,297.02,108.74,579.9491-15.07,189.2576-80.2439,257.0463-36.2468,414.8248,22.0579,79.1023,64.88,156.8831,124.85,265.81,90.4463,164.283,113.63,164.4736,120.8228,221.5083,5.3591,42.4927,1.17,111.2078-197.3438,370.5229-171.7947,224.4122-242.5142,269.427-233.5906,362.4683,8.854,92.3176,82.8247,93.3264,128.8777,221.5086,38.8277,108.0715,8.7466,169.98-8.0549,362.468-24.75,283.5578,28.7588,284.04-4.0274,430.9343-54.3916,243.6943-201.3493,240.9717-257.7552,438.99-21.4979,75.4707-28.7914,176.4112,225.5358,749.1006,206.9856,466.0865,267.0676,523.6407,253.7277,684.6626-20.0864,242.459-167.66,248.9873-209.426,519.5376-46.6811,302.3916,93.626,579.5659,161.0969,712.854,136.1443,268.9512,301.0892,399.648,285.9471,592.0318-10.05,127.6875-52.3565,261.7822-52.3565,261.7822A1229.8609,1229.8609,0,0,1,1486.95,8114.55q7.6438,2.581,15.2878,5.1611a1169.51,1169.51,0,0,0,77.1658-188.0908c24.5464-78.6963,40.48-129.78,38.8515-198.9375-.4653-19.77-3.4729-88.0337-53.4716-202.124-43.9939-100.3882-80.0288-135.0767-137.9578-225.6514-119.5054-186.8515-170.39-358.5634-190.36-427.7754-8.47-29.3559-33.229-118.3457-49.1941-237.4155-20.8442-155.4585-31.2663-233.188-5.3474-320.8315,43.4175-146.8145,133.4161-138.4077,180.7351-273.7759,40.1756-114.9326,9.5345-218.9321-43.8469-391.4146-26.876-86.84-84.2226-202.98-198.9155-435.2612,0,0-110.72-224.2344-199.6516-470.3a365.6419,365.6419,0,0,1-12.4176-40.3042c-17.1232-70.3677-2.93-106.1523,8.0371-237.5259,5.9105-70.8027,3.265-78.1035,12.7191-101.7534,19.4507-48.6567,49.759-65.5605,87.6421-104.7275,0,0,71.6448-74.0733,110.2082-182.168,24.375-68.3242,24.7166-123.5269,25.2654-212.2275.6685-108.0406-14.6289-111.6651-13.2417-207.2828,1.1116-76.614,10.99-78.2668,29.03-235.8032,21.4087-186.959,11.3242-218.0693-5.0928-242.424-33.6433-49.91-71.9262-38.88-103.896-100.84-5.2116-10.1009-34.3483-68.835-17.8254-138.5281a191.6855,191.6855,0,0,1,17.8254-46.3457c42.8938-81.7163,110.98-137.8782,126.8143-151.2605,59.5573-50.3347,111.9165-135.2207,216.635-304.9927,47.8547-77.583,65.2087-114.39,60.7727-160.6042-4.0545-42.2388-23.614-64.2273-69.115-136.292,0,0-51.3614-81.3457-106.5789-187.9668-56.5879-109.2666-85.0056-165.4666-91.0769-242.2254-2.7424-34.6714,3.9854-77.3728,17.44-162.7752,31.0237-196.914,50.2618-184.02,45.2154-252.56-7.481-101.6066-56.0391-215.2384-75.5742-250.6223a259.4844,259.4844,0,0,1-13.2684-27.3281c-15.9624-38.4436-18.5146-70.8511-20.09-88.9649-7.281-83.7-13.8581-93.83-15.8105-138.3431-4.097-93.4114,20.4887-148.6424,46.6184-272.7088,1.6675-7.9172,29.58-142.6408,38.6028-292.8478a1727.1076,1727.1076,0,0,0-5.1827-272.088C1208.1956-51.1293,1202.5806-57.9806,1201.0025-57.0947Z"/></g></svg>