<svg id="Layer_1" data-name="Layer 1" xmlns="http://www.w3.org/2000/svg" xmlns:xlink="http://www.w3.org/1999/xlink" width="1920" height="8065.3415" viewBox="0 0 1920 8065.3415"><defs><style>.cls-1{filter:url(#AI_GaussianBlur_2);}.cls-2{fill:#b0d3ec;}.cls-3{opacity:0.65;filter:url(#AI_GaussianBlur_4);}</style><filter id="AI_GaussianBlur_2" name="AI_GaussianBlur_2"><feGaussianBlur stdDeviation="2"/></filter><filter id="AI_GaussianBlur_4" name="AI_GaussianBlur_4"><feGaussianBlur stdDeviation="4"/></filter></defs><g class="cls-1"><path class="cls-2" d="M550.6975-53.5138C700.1375,105.0844,710.8713,187.4014,691.19,233.45c-31.5759,73.88-159.4948,96.6472-152.9582,124.2,5.4119,22.812,91.5415.6505,114.0985,37.217,35.5635,57.651-142.1591,171.3793-116.5792,286.9641,17.8937,80.8539,117.1056,77.9948,167.3958,167.3958,56.5623,100.551-18.92,200.8812-53.8058,355.7159-53.7984,238.7714,60.0162,258.2947,44.8381,541.047-14.0654,262.0235-126.9,526.4734-203.2662,705.4537-54.1433,126.8959-86.8046,179.2146-68.7519,257.072,34.4759,148.687,203.132,171.5263,254.0828,352.7265,22.76,80.9419-13.3783,67.5494,2.9893,197.2879,26.97,213.7788,132.4625,308.5859,89.6762,436.4243-17.52,52.3477-51.2179,91.1982-51.218,91.1982-43.6672,50.3448-81.092,52.7193-104.2208,76.1978-65.3052,66.2934,61.3862,221.6367,89.6763,409.5215,37.9,251.71-136.5614,324.3921-125.5469,624.7451,6.02,164.1514,60.1753,198.207,92.6655,346.748,125.1173,572.0191-489.499,928.7149-328.813,1360.09,69.2731,185.9692,194.319,148.7148,269.0288,382.6191,36.1849,113.2886,89.5324,380.8887-17.9351,642.68-45.4035,110.6025-112.9739,204.2437-95.6548,346.7485,8.6992,71.5791,35.4647,127.9141,56.795,164.4063-2.6474,3.2871-6.5366,6.9326-11.3092,7.0234-26.5338.502-63.4442-109.2265-61.3319-208.2129.4937-23.1308,3.2778-53.166,79.0237-253.2158,48.7877-128.852,57.1523-141.5337,68.827-192.8857,4.6194-20.3184,20.8954-95.6841,19.5435-196.2847-1.2393-92.2187-16.65-157.876-34.8384-235.3716-21.9225-93.4033-33.5685-141.1011-67.1277-189.9116-33.1982-48.2856-47.4923-42.6636-107.0643-104.94-58.356-61.0054-124.1415-129.7774-142.7525-225.6-9.6274-49.5694.2444-95.9781,19.9881-188.795,25.3557-119.2,64.456-202.3833,74.3305-222.8925,39.9878-83.0538,55.8221-83.58,103.6656-170.3687,20.2718-36.7734,71.5087-131.1143,101.1163-253.2153,22.1837-91.4854,22.0117-166.9219,21.6677-317.7945-.1905-83.55-.3689-161.7827-15.2949-265.9614-19.2827-134.5864-37.0132-129.8491-38.6621-211.1543-2.3053-113.67,30.59-209.7261,55.2316-281.6811,34.9126-101.9468,51.9388-104.752,62.8791-172.9175,12.3511-76.9561,1.0546-138.207-12.3209-210.73-16.3612-88.7124-45.9627-184.728-59.48-228.5737-27.3366-88.6695-40.98-117.9785-24.217-150.8247,20.5038-40.1748,58.4613-30.7056,107.0644-86.2466,6.9105-7.897,40.207-47.0147,54.3818-106.6392,2.7122-11.4084,12.4486-56.0588-6.3728-142.3274-20.0868-92.0683-39.676-80.1716-59.0553-165.27-9.149-40.1755-28.7233-126.13-10.1967-206.0564,1.9245-8.3022,5.647-22.5232,5.948-42.4858.6512-43.1721-15.2268-78.2754-30.59-105.365-21.444-37.812-45.9386-67.1594-110.4631-131.2813-93.189-92.6074-106.1662-95.0634-124.4836-132.1308-8.4907-17.1819-38.4451-77.7986-21.2429-143.6023,11.8716-45.4124,36.3692-55.6809,71.8011-110.888,31.1126-48.4773,41.1-85.5529,61.6044-150.8247,74.5242-237.237,91.4655-221.4013,124.9085-364.5285,22.8635-97.85,40.7563-174.4265,36.1129-279.5569-5.2062-117.87-30.1649-217.9525-30.1649-217.9527-18.5658-74.4473-33.8245-99.2574-33.9887-158.4721-.1352-48.7831,10.1065-83.93,30.59-154.2237,27.4162-94.0859,44.7259-109.517,54.3819-180.14,6.1685-45.1157,10.5753-80.8191-7.6474-117.6858-5.6211-11.372-15.3659-26.8413-82.4226-77.7491-86.8981-65.9708-107.7658-68.2589-115.5616-96.0179-10.6107-37.7825,15.7676-77.2712,45.0351-121.0848,29.4225-44.0456,63.146-72.3119,85.8214-131.2812,4.9422-12.8528,10.3349-29.7005,2.5492-42.4859-8.4286-13.8408-29.2641-17.9331-56.9311-23.3671-27.3491-5.3717-41.3687-3.9515-45.8847-13.1707-.9405-1.92-3.8513-9.1648,5.5232-24.2169C566.16,292.57,655.8144,269.7257,679.4544,232.2121,697.1481,204.1345,693.0673,143.7076,573.24-3.5844Z"/></g><g class="cls-3"><path class="cls-2" d="M684.2744-36.214c-61.8882,65.6984-75.1661,119.8648-74.9233,158.4094.5425,86.1346,68.7627,119.5276,55.6573,196.9413-10.28,60.7218-56.7083,66.498-79.2046,130.5807-29.3848,83.7047,16.6993,168.2241,38.532,214.0666,24.9592,52.4075,46.6088,212.6138,89.9079,533.0261,53.5238,396.0745.2156,364.5166,53.5167,558.714,62.8113,228.847,142.9142,294.8035,102.752,417.43-46.7162,142.6372-184.1345,142.0625-205.504,274.0053-21.26,131.2691,110.3443,159.0913,113.4554,336.0847,2.4738,140.7364-79.4148,198.2627-38.5321,318.9595,24.4771,72.263,55.5515,56.7219,81.3453,130.5806,42.2242,120.9055-31.9985,188.46-6.422,340.366,12.2176,72.5629,32.81,78.863,53.5168,147.7063,47.0905,156.561-22.0457,248.2016-81.3454,505.1972-64.4141,279.1612-1.1132,250.2344-68.5013,520.1817-37.7249,151.1211-75.9315,233.7685-32.11,325.3813,50.11,104.7608,143.6489,87.7949,175.5347,175.5347,41.9864,115.5337-97.8853,206.3554-179.8161,449.54-35.4694,105.28-27.47,142.3247-51.3759,314.6782-81.8112,589.835-244.3819,652.6162-173.3941,881.9546,66.9978,216.4478,228.7236,215.1783,256.88,445.2588,12.8086,104.6655-14.12,199.6411-68.5013,385.32a3111.1691,3111.1691,0,0,1-156.2687,419.5708l8.1836,2.7217a1620.97,1620.97,0,0,0,85.1882-182.0459c27.9488-70.8457,42.5464-122.6855,70.6012-223.4731,40.3175-144.8418,60.4763-217.2632,67.6837-296.4082,9.746-107.0215,15.2924-167.9268-19.2547-232.8086-5.7934-10.88-41.0894-53.6914-111.445-138.8687-66.3784-80.3623-71.9775-86.7109-82.8542-105.0263-13.6478-22.982-52.0733-89.1734-57.7647-171.5435-4.2221-61.1069,11.4036-104.5889,42.5942-186.7139,109.7572-288.9921,117.1513-279.4946,130.1162-344.2539,11.5665-57.7744-1.2837-30.5424,19.8383-273.0688,11.79-135.374,18.0308-169.5444,25.09-200.1343,10.5819-45.8564,30.8835-131.1416,83.4377-226.9736,49.377-90.0386,81.1234-105.3223,115.5292-197.8,36.3236-97.6328,20.1885-132.3369,15.1705-141.7857-21.7783-41.01-59.7713-31.17-112.6118-75.8525-70.7676-59.8423-85.3848-147.4775-87.5221-161.6245-10.431-69.0449,18.7778-92.9277,48.429-200.1338,19.28-69.7075,11.1455-74.85,35.5922-309.2446,14.7236-141.169,22.0854-211.7539,28.5906-242.1446,44.8335-209.45,110.5186-217.1084,106.777-354.7563-3.6879-135.6719-46.6785-235.1431-46.6785-235.1431-11.3022-26.1509-19.24-38.4785-26.2566-66.5168-16.2486-64.9309,2.2713-94.9268,12.8366-193.7156,10.9759-102.6287,17.0532-159.4529-18.0879-200.7173-20.321-23.862-40.6918-26.3943-57.1812-58.3481-19.2645-37.3321-13.148-75.9046-9.9191-96.2744,24.6823-155.71,37.0183-233.6668,36.7592-238.6436-4.6233-88.8254-49.0395-197.2832-94.5239-243.3115a88.2409,88.2409,0,0,1-19.8383-28.0071c-19.4024-44.6108,6.4465-95.9431,16.3375-114.9458,26.0827-50.1106,52.5011-60.5928,96.8577-106.7771,43.3343-45.12,103.6122-107.8813,109.6945-184.9634,2.4758-31.3762-7.0262-27.1279-54.8472-167.459-22.4511-65.8833-38.409-119.7944-57.1811-183.2129-20.37-68.8159-30.5546-103.2238-33.8419-119.6137-18.6061-92.767-1.1383-112.94-8.1687-243.3114-3.4518-64.01-6.8114-43.361-22.7558-209.47-7.0671-73.6256-7.5742-89.8415-14.0035-133.6172-10.7165-72.9658-16.5127-76.9719-28.0071-154.039-11.54-77.3765-7.2648-83.8457-19.2549-138.2849-7.6817-34.8779-14.8033-67.212-31.5079-108.5274-17.9894-44.4931-27.9754-52.1191-37.9263-89.2726-8.25-30.8039-16.156-60.3215-8.1688-92.7735,12.8689-52.286,51.19-47.9746,74.6857-105.0265,2.4437-5.9339,27.75-69.8359,2.3338-128.3658-9.8973-22.792-21.0118-29.86-32.6749-63.0159-8.32-23.6514-12.5311-48.1051-12.8366-65.35C615.3651,37.9636,685.174-19.9148,696.6243-29.1547Z"/></g></svg>