<svg id="Layer_1" data-name="Layer 1" xmlns="http://www.w3.org/2000/svg" width="500" height="500" viewBox="0 0 500 500"><defs><style>.cls-1{fill:#55bdca;}.cls-2{fill:#efecf3;}</style></defs><circle class="cls-1" cx="249.9999" cy="250" r="250"/><path class="cls-2" d="M225.1825,397.9191c12.8045,8.81,34.0581,8.4814,45.1934-1.8446,12.1267-11.2456,2.9114-25.686.9223-87.62-2.0044-62.419,6.9234-61.2236,0-94.9984-1.3308-6.4917-3.6533-16.2573,0-18.4463,6.6756-4,25.3013,22.0922,65.4842,48.8826,22.719,15.1471,32.12,17.0437,40.5818,15.6794,14.48-2.3348,30.63-14.0327,30.4365-25.8248-.2317-14.0906-23.5545-15.3853-68.94-45.6816-31.3664-20.9383-47.05-31.4075-64.2954-50.06C262.997,125.4926,259.3451,118.8044,250,116.988c-17.3621-3.3746-30.2454,14.7567-58.9431,41.1294-52.5039,48.25-84.9243,56.6163-81.1636,75.63,2.0942,10.5878,13.6751,19.7764,23.98,20.2909,14.2784.7129,20.5979-15.5018,47.0379-37.8149,16.2859-13.7438,35.0781-29.6029,43.3489-24.9025,11.3937,6.4755-7.1929,46.2793-12.9124,118.0563C205.5289,382.4,220.5038,394.7,225.1825,397.9191Z"/></svg>