<svg id="Layer_1" data-name="Layer 1" xmlns="http://www.w3.org/2000/svg" xmlns:xlink="http://www.w3.org/1999/xlink" width="1920" height="1080" viewBox="0 0 1920 1080"><defs><style>.cls-1{opacity:0.4;filter:url(#AI_GaussianBlur_4);}.cls-2{fill:#b0d3ec;}</style><filter id="AI_GaussianBlur_4" name="AI_GaussianBlur_4"><feGaussianBlur stdDeviation="4"/></filter></defs><g class="cls-1"><path class="cls-2" d="M1914.2868,1124.2171c8.6058,1.07,26.7087-84.8838,32.4112-118.205,22.13-129.3109-15.8639-205.8848-34.3176-329.83-18.4419-123.8658,8.0341-124.4228,9.5325-343.176.5956-86.9537-2.7075-215.3516-22.8783-373.6805q-11.2578.4707-22.5158.9414a2339.8086,2339.8086,0,0,1,31.7575,255.1554c5.535,80.5664,9.496,138.2245,4.132,217.6915-6.3412,93.9446-18.744,115.0974-18.29,182.8981.3981,59.4167,14.876,64.548,38.35,200.5981,15.8593,91.9179,15.6681,117.6446,15.364,128.9994-1.8524,69.1825-21.812,124.6506-38.08,160.1772C1910.2956,1114.2308,1911.4641,1123.8662,1914.2868,1124.2171Z"/><path class="cls-2" d="M1742.7615-49.6008c29.7656,130.3448,22.1745,231.9725,8.4531,302.903-29.12,150.53-87.7818,172.7956-83.0914,292.9551,2.0011,51.2659,12.24,35.9514,66.8923,277.1248,12.5708,55.4733,23.8866,108.6087,7.9632,173.6013-11.5063,46.964-32.8957,82.4045-49.3728,105.1163-15.347,3.696-32.63,6.6939-35.0388,1.5927-2.9231-6.19,18.6978-18.7122,35.0388-35.0388,51.7629-51.7169,47.5453-138.6069,46.0542-169.3263-1.0723-22.094-5.966-44.7047-15.7534-89.926-5.9828-27.6426-7.4425-29.4925-24.943-97.8027-21.1307-82.48-19.664-82.3648-27.4419-104.8155-15.434-44.55-21.8245-46.7794-23.1-68.4725-1.62-27.5491,7.3338-46.946,27.087-90.7643,27.1017-60.1194,40.6526-90.1792,45.053-100.7514,20.6387-49.5862,24.6733-99.2941,32.7427-198.71,5.7486-70.8249,3.39-108.0747-6.05-146.5033a358.76,358.76,0,0,0-13.3971-42.7841Z"/><path class="cls-2" d="M1559.4676,1094.4619c.1155.0836,32.7017-27.8047,43.85-70.4252,4.5958-17.5707,17.9954-68.8005-7.9727-110.2886-20.76-33.1681-44.9526-25.3931-70.4253-50.4936-59.3719-58.5047-41.4618-212.6045,14.6166-314.9206,19.4878-35.5559,43.3926-64.5073,43.85-112.9463.3472-36.7851-13.1351-52.28-22.5892-91.6856-11.8938-49.5745-5.2716-87.0867,7.9726-162.111A926.6417,926.6417,0,0,1,1632.55-28.356l-25.2468-9.3015c-7.0676,71.858-19.8937,124.8827-30.6695,160.7438-4.8587,16.17-14.0388,44.6179-20.8051,85.2211-7.06,42.3655-6.9672,70.809-6.8017,80.82.4036,24.4031.737,44.5625,7.602,70.4175,8.2092,30.9176,16.4085,34.7669,19.6048,60.8152a141.5762,141.5762,0,0,1-4.8012,57.2142c-8.5954,28-20.34,32.099-39.21,69.2173-6.8779,13.53-11.0219,25.2064-19.6048,48.412-5.4586,14.7585-14.6012,40.7256-23.6435,74.444-4.1345,15.4177-6.2019,23.1266-7.0665,29.1494-1.2157,8.4676-2.418,21.8371,4.6431,71.5022,3.7157,26.1346,5.688,39.4757,9.9521,53.3053,6.4753,21,9.7129,31.5006,18.1369,41.6475,21.0033,25.2992,45.73,15.2376,68.5819,37.6053,16.9333,16.5743,19.945,38.3356,22.7685,58.7363,6.5553,47.3642-15.8558,85.4216-26.5633,104.1083A194.8146,194.8146,0,0,1,1559.4676,1094.4619Z"/><path class="cls-2" d="M1271.4925-38.8208c76.9913,256.6344,52.58,436.0527,15.5221,552.977-46.96,148.1666-133.2224,255.9112-83.4316,376.4125,35.0859,84.9132,139.0475,179.35,122.2371,197.9076-2.5309,2.794-12.3118,8.85-14.664,6.6945-2.0935-1.9184,2.3207-9.7711,3.0844-11.3093,11.0587-22.2742-55.1554-76.6125-88.4178-125.43-41.2457-60.534-41.8276-126.2455-41.765-141.7784.1154-28.6184,8.1725-56.81,24.287-113.1937,9.867-34.5238,17.0026-51.3482,39.0684-116.1767,30.74-90.3132,33.2088-95.606,38.04-111.0363,27.615-88.197,25.07-164.7581,22.6186-238.5223A995.9946,995.9946,0,0,0,1264.891-20.3321Z"/><path class="cls-2" d="M1386.8507,1108.1254c-.8446-22.3784-1.9131-57.5-2.0735-100.5616-.4271-114.64,6.0305-164.8777,6.22-246.739.2-86.2577-6.6893-151.4908-11.404-194.9031-28.197-259.6335-90.4961-311.8206-45.6156-390.8428,14.6636-25.8186,52.4185-75.0139,55.9828-149.2874a238.0592,238.0592,0,0,0-1.0367-36.2851l-12.4406-2.0735a329.1709,329.1709,0,0,1-3.11,74.6438c-2.9766,18.9562-6.8005,43.3082-19.8876,71.6041-13.6684,29.5531-21.6229,29.2066-31.171,54.0722-10.7976,28.12-9.9666,52.8907-9.2241,69.9758,1.7185,39.55,12.7219,61.0464,24.1734,97.0118,9.407,29.5442,14.8593,65.1805,25.764,136.4528,9.77,63.8546,14.0139,112.3757,16.54,141.86,3.2882,38.3859,6.4817,76.5889,6.9976,127.8649.2594,25.78-.268,43.9533-1.2722,78.5637-2.0115,69.3238-4.5915,89.3858-5.7254,132.6359-.7791,29.7209-.9623,73.6981,2.5446,128.183Z"/><path class="cls-2" d="M957.3936,1129.9328c90.6272-307.5606,66.2927-452.0482,21.2392-526.4341-6.37-10.5173-49.4736-79.5983-87.4668-177.7379-32.2827-83.3889-36.9928-126.0659-38.4525-143.8874-2.2378-27.3211-1.0245-59.44,1.4021-123.6782.9042-23.9349,1.9439-51.4591,4.6664-87.1989,2.8252-37.0881,7.702-86.1669,16.6881-144.1245q15.93,1.517,31.8591,3.0342c-30.507,96.6906-39.0849,174.8005-41.4735,225.1584-.4088,8.62-2.1838,49.0546.7827,102.5308,1.5518,27.9731,4.31,77.6994,14.0882,122.0975,14.2683,64.7885,34.8891,79.2061,75.9436,164.534,33.5659,69.7637,61.4011,127.6167,72.4072,205.1542,11.2524,79.2732-.3083,142.3309-9.0344,189.9257A740.0959,740.0959,0,0,1,957.3936,1129.9328Z"/><path class="cls-2" d="M452.7573,1140.5876c8.6184-185.1793,21.8515-285.8,35.2068-344.4155,4.9672-21.8012,20.2011-82.7777,7.9733-157.6985-2.894-17.7322-6.6652-32.194-11.0349-48.9509-24.978-95.7862-45.8449-104.6319-47.4526-142.3583-2.292-53.782,39.259-55.8977,78.0674-150.0121,12.1975-29.58,31.4428-85.9975,31.7226-155.7311.3013-75.1377-21.5319-136.9726-42.4377-179.5h-19.9c18.1028,27.1986,42.2447,71.9578,51.305,131.4713,9.5761,62.9009-2.284,112.14-10.0677,143.1017-6.36,25.3-16.4133,63.9857-43.1462,106.4275-25.7893,40.9437-39.0715,40.8811-48.18,69.0341-4.7862,14.7934-7.7637,35.3491,15.82,117.9331,23.4978,82.2819,34.8012,91.1076,40.27,133.0343,3.4592,26.5222,1.1562,40.0125-8.6292,113.6186-23.8271,179.229-30.1738,249.698-33.0789,287.6417-2.9043,37.9342-4.3139,68.766-5.0336,87.7308Q448.4594,1146.2508,452.7573,1140.5876Z"/><path class="cls-2" d="M663.046,1124.227a276.9539,276.9539,0,0,1,1.8156-89.852c11.2349-59.9215,41.2886-107.2483,63.6228-142.4187,23.2144-36.5567,43.7327-60.074,45.3038-99.9556.0466-1.1851.0283-1.16-3.5957-37.3934-7.1722-71.7054-8.66-87.39-7.191-109.3039,1.7205-25.6713,5.5411-30.6917,7.191-47.4609,5.9558-60.5327-33.5164-99.8982-56.8091-145.259-38.8875-75.73-1.0872-106.6506-15.1013-270.3833A1032.2532,1032.2532,0,0,0,666.6414,3.1431H653.6976A788.8191,788.8191,0,0,1,683.181,130.4246c2.2387,15.3871,9.5564,68.8977,8.6291,142.3827-1.1753,93.1415-14.0268,93.9623-3.5954,131.5961,13.7766,49.7023,37.1113,51.5869,58.2473,120.0905a349.5874,349.5874,0,0,1,15.1013,81.9779c2.4768,44.0275-6.4412,45.3656-5.7087,88.1972,1.0957,64.0721,21.3781,80.1587,9.0991,120.3125-5.291,17.3025-9.94,17.2028-31.4356,51.087C723.4486,881.9414,691.1,933.5493,671.939,993.9339c-8.7651,27.6221-18.322,68.2712-18.96,120.2257Z"/><path class="cls-2" d="M450.92,1153.1282c-77.8755-145.9146-84.9766-266.86-83.637-328.3137,1.8243-83.6892,20.657-156.6321,20.657-156.6322,20.4666-79.2708,42.6482-108.6808,69.5186-209.9805,17.7663-66.9777,19.4-88.9377,18.6535-109.1181-2.4553-66.3444-34.4533-82.04-58.7815-180.5426-19.9536-80.79-9.5014-110.4125-5.7277-119.8427,16.2165-40.5249,51.0437-62.885,70.8071-73.296L457.2178-39.2929c-32.0637,42.352-69.8418,107.3133-62.98,182.642,4.7212,51.83,43.8892,80.2008,59.9993,168.828a510.1237,510.1237,0,0,1,6.9062,77.002c1.137,124.0538-61.5251,165.6219-90.6557,289.1336-28.5083,120.8737-4.7825,234.9221,17.6325,342.67a1126.594,1126.594,0,0,0,28.5372,109.3627Z"/><path class="cls-2" d="M134.583,1124.2657a1526.9254,1526.9254,0,0,0,15.9736-295.5143A1526.8967,1526.8967,0,0,0,110.3388,540.388c-14.6054-61.2955-29.2141-150.506-21.68-256.7407C102.7939,84.3216,187.37-69.0324,180.5073-71.7686c-4.0232-1.6042-32.4565,51.363-52.56,113.6926-9.9045,30.7077-15.1848,55.6194-26.821,121.1741C85.6384,250.35,77.8945,293.9757,75.999,312.9525c-7.3022,73.1078,2.7854,108.2756,34.6489,307.1587,16.6809,104.1176,25.0213,156.1764,27.1572,177.9273,7.5765,77.1546,10.306,189.4361-15.92,330.57Z"/></g></svg>