<svg id="Layer_1" data-name="Layer 1" xmlns="http://www.w3.org/2000/svg" xmlns:xlink="http://www.w3.org/1999/xlink" width="1920" height="4695.0228" viewBox="0 0 1920 4695.0228"><defs><style>.cls-1{opacity:0.65;filter:url(#AI_GaussianBlur_4);}.cls-2{fill:#b0d3ec;}.cls-3{filter:url(#AI_GaussianBlur_2);}.cls-4{fill:#97caed;}</style><filter id="AI_GaussianBlur_4" name="AI_GaussianBlur_4"><feGaussianBlur stdDeviation="4"/></filter><filter id="AI_GaussianBlur_2" name="AI_GaussianBlur_2"><feGaussianBlur stdDeviation="2"/></filter></defs><g class="cls-1"><path class="cls-2" d="M429.7752,4809.47c.1748.3665,49.5055-121.9408,66.3819-308.8582,6.9574-77.0581,27.2425-301.7326-12.07-483.6835-31.4283-145.4626-68.0517-111.3643-106.6136-221.4456-89.88-256.5792-62.7671-932.4018,22.1274-1381.121,29.5017-155.9346,65.69-282.9041,66.3821-495.3389.5255-161.3256-19.8847-229.28-34.1968-402.0982-18.0055-217.4146-7.9805-381.9287,12.0694-710.9565,14.1041-231.4548,41.0677-552.5246,96.5557-920.7472q-19.11-20.3963-38.22-40.7929C491.4924,159.57,472.0757,392.116,455.7627,549.389c-7.3554,70.9151-21.2527,195.6771-31.496,373.7475-10.6879,185.7987-10.5472,310.5409-10.2966,354.4464.6109,107.0225,1.1156,195.434,11.5082,308.8241,12.4275,135.5927,24.84,152.474,29.6789,266.7121,5.33,125.8316-4.6224,225.947-7.2685,250.92-13.012,122.7975-30.7923,140.7739-59.3577,303.56-10.4122,59.3359-16.6857,110.5457-29.6789,212.3167-8.2636,64.725-22.1041,178.6068-35.7927,326.483-6.2591,67.6159-9.3888,101.424-10.6977,127.8378-1.84,37.1357-3.6605,95.7692,7.0289,313.5813,5.625,114.6165,8.6108,173.1253,15.0661,233.7769,9.8025,92.0995,14.7039,138.1493,27.4565,182.65,31.7959,110.9525,69.2282,66.8263,103.823,164.9223,25.6346,72.6887,30.1939,168.1254,34.4683,257.5948,9.9237,207.7215-24.0034,374.6265-40.2131,456.5793C444.4663,4761.8329,429.6711,4809.2523,429.7752,4809.47Z"/></g><g class="cls-3"><path class="cls-4" d="M335.1754,4829.5767c-87.2646-225.9065-99.706-407.397-96.4428-526.7261,1.24-45.3366,5.3188-102.6357,96.4428-519.3076,52.3489-239.3689,79.2071-358.9031,111.28-489.6328,84.15-342.9949,103.2348-367.9294,90.2548-455.5974-29.7585-200.9907-147.9016-190.3369-208.9536-419.8066-51.33-192.93,24.4387-227.0376-14.8374-534.1446-25.8777-202.3428-63.0757-211.2788-51.9306-326.4219,20.186-208.5512,147.5849-234.69,207.7229-422.8647,84.7956-265.33-110.4583-394.9531-111.28-771.5425-.29-132.772,23.5654-306.7978,118.699-511.8891q-7.8531-3.6072-15.7063-7.2149c-6.0054,18.0537-15.2476,45.333-27.1023,78.2954C375.7745,82.7356,360.9733,86.6292,345.9926,150.5828c-12.9612,55.3325-10.9832,115.1836-7.0266,234.8858,1.8044,54.5961,3.0908,93.5161,11.0417,147.5566,11.34,77.0742,21.644,85.7275,26.0984,150.5679,4.032,58.6924-2.9573,72.7592,9.0339,109.4121,15.1485,46.3032,35.628,52.3564,56.2119,92.3486,34.3611,66.7593,22.2317,137.2007,14.0533,184.6963-10.4915,60.9287-32.0288,100.875-71.2688,173.6548-51.1333,94.8389-67.1431,93.4287-98.3711,165.6245-19.9441,46.1084-43.1346,99.7217-43.1626,170.6436-.0169,42.8588,7.23,40.9868,22.0832,147.5561,13.8672,99.4941,5.3606,89.6108,17.41,157.085,13.3633,74.8325,26.399,101.3955,21.7378,148.0659-.8056,8.0664-2.7429,34.4687-7.0185,73.7822-1.2376,11.3789-2.3443,25.2568-3.0193,43.6607-.4273,11.65-.384,29.6538,3.0112,109.4126,2.78,65.2929,4.1692,97.9394,5.0191,105.3974,5.7649,50.59,27.5156,101.0171,71.2685,199.7529,40.7051,91.858,61.0576,137.7872,78.418,158.9244,29.6076,36.0493,61.3193,60.3383,66.59,106.2441,3.4006,29.6172-5.9966,52.6274-11.8413,67.665-3.4622,8.9078-21.9727,76.731-58.9937,212.377-10.6435,38.9983-6.1728,31.7754-39.0405,237.7419-16.2561,101.8687-25.377,152.63-30.1135,182.689-20.678,131.2261-38.7,145.3306-74.28,305.1506-30.0381,134.9248-13.51,108.3257-46.1743,266.003-39.4685,190.5219-66.2956,242.3708-47.1777,342.2907,9.414,49.2032,19.019,52.8326,38.1438,134.5071a1238.586,1238.586,0,0,1,31.1172,220.8328Z"/></g><g class="cls-1"><path class="cls-2" d="M559.2892,4779.2032c-5.3559-87.3609-9.854-225.8066,3.4038-389.1793,21.0618-259.5405,77.4029-464.5291,119.2725-616.864,43.5195-158.3392,81.9848-260.2008,84.93-432.9412.0875-5.1332.0531-5.0256-6.7408-161.9636-13.4454-310.58-16.2341-378.5163-13.4806-473.4322,3.2253-111.1913,10.3876-132.9362,13.4806-205.5692,11.1653-262.1877-62.8325-432.6932-106.4989-629.1663-72.9016-328.0144-2.0381-461.94-28.31-1171.1218C618.668,518.7107,603.8174,250.0773,566.03-76.5909H541.7639c21.9108,157.9326,42.1346,342.6749,55.272,551.2993,4.197,66.6466,17.9152,298.4193,16.1769,616.7076-2.2033,403.4274-26.2959,406.9825-6.74,569.9872,25.8267,215.2774,69.5719,223.44,109.1952,520.1525a3365.5042,3365.5042,0,0,1,28.31,355.0743c4.6432,190.6982-12.0751,196.4935-10.702,382.0117,2.054,277.5182,40.0772,347.1948,17.0579,521.1145-9.919,74.9427-18.6347,74.511-58.9316,221.275-18.8773,68.751-79.52,292.2821-115.4413,553.8282C559.529,4334.5,541.6129,4510.5652,540.416,4735.5977Q549.8524,4757.4,559.2892,4779.2032Z"/></g></svg>