<svg id="Layer_1" data-name="Layer 1" xmlns="http://www.w3.org/2000/svg" xmlns:xlink="http://www.w3.org/1999/xlink" width="1920" height="1080" viewBox="0 0 1920 1080"><defs><style>.cls-1{filter:url(#AI_GaussianBlur_2);}.cls-2{fill:#97caed;}</style><filter id="AI_GaussianBlur_2" name="AI_GaussianBlur_2"><feGaussianBlur stdDeviation="2"/></filter></defs><g class="cls-1"><path class="cls-2" d="M74.9741-44.2171c-8.6057-1.07-26.7086,84.8838-32.4111,118.205-22.13,129.3109,15.8638,205.8848,34.3176,329.83C95.3225,527.684,68.8464,528.241,67.348,746.9942c-.5956,86.9537,2.7075,215.3516,22.8783,373.6805l22.5159-.9414A2339.7873,2339.7873,0,0,1,80.9846,864.5779c-5.5349-80.5664-9.496-138.2245-4.132-217.6915,6.3412-93.9446,18.744-115.0974,18.29-182.8981-.3981-59.4167-14.876-64.548-38.35-200.5981-15.8592-91.9179-15.6681-117.6446-15.364-128.9994C43.2812,65.2083,63.2408,9.74,79.5086-25.7864,78.9653-34.2308,77.7968-43.8662,74.9741-44.2171Z"/><path class="cls-2" d="M246.5,1129.6008c-29.7657-130.3448-22.1746-231.9725-8.4532-302.903,29.12-150.53,87.7818-172.7956,83.0915-292.9551-2.0011-51.2659-12.24-35.9514-66.8924-277.1248-12.5708-55.4733-23.8866-108.6087-7.9632-173.6013C257.7885,36.0526,279.1779.6121,295.655-22.1c15.347-3.696,32.63-6.6939,35.0388-1.5927,2.9231,6.19-18.6977,18.7122-35.0388,35.0388C243.8922,63.0633,248.11,149.9533,249.6008,180.6727c1.0724,22.094,5.9661,44.7047,15.7534,89.926,5.9828,27.6426,7.4425,29.4925,24.943,97.8027,21.1307,82.48,19.6641,82.3648,27.4419,104.8155,15.4341,44.55,21.8246,46.7794,23.1005,68.4725,1.62,27.5491-7.3339,46.946-27.0871,90.7643C286.6508,692.5731,273.1,722.6329,268.7,733.2051c-20.6386,49.5862-24.6733,99.2941-32.7426,198.71-5.7487,70.8249-3.39,108.0747,6.05,146.5033a358.7225,358.7225,0,0,0,13.3971,42.7841Z"/><path class="cls-2" d="M429.7933-14.4619c-.1155-.0836-32.7017,27.8047-43.85,70.4252-4.5958,17.5707-17.9955,68.8005,7.9726,110.2886,20.7605,33.1681,44.9527,25.3931,70.4253,50.4936,59.372,58.5047,41.4618,212.6045-14.6165,314.9206-19.4878,35.5559-43.3926,64.5073-43.85,112.9463-.3471,36.7851,13.1352,52.28,22.5893,91.6856,11.8938,49.5745,5.2716,87.0867-7.9727,162.111a926.6366,926.6366,0,0,1-63.7814,209.947q12.6235,4.6508,25.2469,9.3015c7.0676-71.858,19.8936-124.8827,30.6694-160.7438,4.8588-16.17,14.0388-44.6179,20.8052-85.2211,7.06-42.3655,6.9671-70.809,6.8016-80.82-.4036-24.4031-.7369-44.5625-7.6019-70.4175-8.2093-30.9176-16.4086-34.7669-19.6049-60.8152a141.5774,141.5774,0,0,1,4.8013-57.2142c8.5953-28,20.34-32.099,39.21-69.2173,6.8779-13.53,11.022-25.2064,19.6049-48.412,5.4586-14.7585,14.6012-40.7256,23.6434-74.444,4.1345-15.4177,6.2019-23.1266,7.0665-29.1494,1.2157-8.4676,2.418-21.8371-4.6431-71.5022-3.7156-26.1346-5.6879-39.4757-9.9521-53.3053-6.4752-21-9.7129-31.5006-18.1368-41.6475-21.0033-25.2992-45.73-15.2376-68.5819-37.6053-16.9334-16.5743-19.9451-38.3356-22.7686-58.7363-6.5553-47.3642,15.8558-85.4216,26.5634-104.1083A194.81,194.81,0,0,1,429.7933-14.4619Z"/><path class="cls-2" d="M717.7684,1118.8208c-76.9912-256.6344-52.58-436.0527-15.5221-552.977,46.96-148.1666,133.2224-255.9112,83.4316-376.4125C750.592,104.5181,646.6305,10.0817,663.4409-8.4763c2.5309-2.794,12.3117-8.85,14.6639-6.6945,2.0935,1.9184-2.3207,9.7711-3.0843,11.3093-11.0587,22.2742,55.1554,76.6125,88.4177,125.43,41.2457,60.534,41.8276,126.2455,41.765,141.7784-.1154,28.6184-8.1725,56.81-24.287,113.1937-9.8669,34.5238-17.0025,51.3482-39.0683,116.1767-30.74,90.3132-33.2089,95.606-38.04,111.0363-27.615,88.197-25.07,164.7581-22.6185,238.5223A995.99,995.99,0,0,0,724.37,1100.3321Q721.0691,1109.5764,717.7684,1118.8208Z"/><path class="cls-2" d="M602.41-28.1254c.8446,22.3784,1.9131,57.5,2.0735,100.5616.4271,114.64-6.03,164.8777-6.22,246.739-.2,86.2577,6.6892,151.4908,11.4039,194.9031,28.197,259.6335,90.4961,311.8206,45.6156,390.8428C640.6193,930.74,602.8644,979.935,599.3,1054.2085a238.0435,238.0435,0,0,0,1.0368,36.2851l12.44,2.0735a329.1767,329.1767,0,0,1,3.11-74.6438c2.9766-18.9562,6.8006-43.3082,19.8876-71.6041,13.6685-29.5531,21.6229-29.2066,31.171-54.0722,10.7976-28.12,9.9666-52.8907,9.2242-69.9758-1.7185-39.55-12.722-61.0464-24.1735-97.0118-9.407-29.5442-14.8593-65.1805-25.7639-136.4528-9.77-63.8546-14.0139-112.3757-16.54-141.86-3.2882-38.3859-6.4817-76.5889-6.9976-127.8649-.2594-25.7805.268-43.9533,1.2723-78.5637,2.0114-69.3238,4.5914-89.3858,5.7253-132.6359.7792-29.7209.9623-73.6981-2.5446-128.183Z"/><path class="cls-2" d="M1031.8674-49.9328c-90.6272,307.5606-66.2928,452.0482-21.2393,526.4341,6.37,10.5173,49.4736,79.5983,87.4668,177.7379,32.2827,83.3889,36.9928,126.0659,38.4525,143.8874,2.2378,27.3211,1.0246,59.44-1.4021,123.6782-.9042,23.9349-1.9438,51.4591-4.6664,87.1989-2.8252,37.0881-7.702,86.1669-16.6881,144.1245l-31.8591-3.0342c30.5071-96.6906,39.085-174.8005,41.4735-225.1584.4088-8.62,2.1838-49.0546-.7827-102.5308-1.5518-27.9731-4.31-77.6994-14.0881-122.0975-14.2684-64.7885-34.8892-79.2061-75.9436-164.534C999.0248,466.01,971.19,408.1566,960.1835,330.6191c-11.2524-79.2732.3084-142.3309,9.0344-189.9257A740.0994,740.0994,0,0,1,1031.8674-49.9328Z"/><path class="cls-2" d="M1536.5037-60.5876c-8.6184,185.1793-21.8516,285.8-35.2068,344.4155-4.9673,21.8012-20.2012,82.7777-7.9734,157.6985,2.894,17.7322,6.6653,32.194,11.0349,48.9509,24.978,95.7862,45.845,104.6319,47.4526,142.3583,2.292,53.782-39.259,55.8977-78.0673,150.0121-12.1976,29.58-31.4429,85.9975-31.7227,155.7311-.3013,75.1377,21.532,136.9726,42.4377,179.5h19.9c-18.1028-27.1986-42.2446-71.9578-51.3049-131.4713-9.5762-62.9009,2.2839-112.14,10.0676-143.1017,6.36-25.3,16.4133-63.9857,43.1462-106.4275,25.7893-40.9437,39.0716-40.8811,48.18-69.0341,4.7861-14.7934,7.7636-35.3491-15.82-117.9331-23.4978-82.2819-34.8013-91.1076-40.27-133.0343-3.4592-26.5222-1.1563-40.0125,8.6291-113.6186,23.8272-179.229,30.1739-249.698,33.0789-287.6417,2.9043-37.9342,4.314-68.766,5.0337-87.7308Q1540.8014-66.2508,1536.5037-60.5876Z"/><path class="cls-2" d="M1326.215-44.227a276.9573,276.9573,0,0,1-1.8157,89.852c-11.2349,59.9215-41.2886,107.2483-63.6228,142.4187-23.2144,36.5567-43.7327,60.074-45.3037,99.9556-.0467,1.1851-.0283,1.16,3.5957,37.3934,7.1721,71.7054,8.66,87.39,7.1909,109.3039-1.72,25.6713-5.541,30.6917-7.1909,47.4609-5.9558,60.5327,33.5163,99.8982,56.8091,145.259,38.8874,75.7305,1.0871,106.6506,15.1013,270.3833a1032.2413,1032.2413,0,0,0,31.6406,179.0571h12.9439A788.8085,788.8085,0,0,1,1306.08,949.5754c-2.2388-15.3871-9.5564-68.8977-8.6292-142.3827,1.1753-93.1415,14.0269-93.9623,3.5955-131.5961-13.7766-49.7023-37.1114-51.5869-58.2474-120.0905a349.593,349.593,0,0,1-15.1013-81.9779c-2.4768-44.0275,6.4412-45.3656,5.7088-88.1972-1.0957-64.0721-21.3782-80.1587-9.0992-120.3125,5.2911-17.3025,9.94-17.2028,31.4356-51.087,10.07-15.8729,42.4177-67.4808,61.5791-127.8654,8.7651-27.6221,18.322-68.2712,18.96-120.2257Z"/><path class="cls-2" d="M1538.3412-73.1282c77.8755,145.9146,84.9766,266.86,83.637,328.3137-1.8242,83.6892-20.657,156.6321-20.657,156.6322-20.4665,79.2708-42.6482,108.6808-69.5185,209.98-17.7664,66.9777-19.4,88.9377-18.6536,109.1181,2.4553,66.3444,34.4534,82.04,58.7815,180.5426,19.9536,80.79,9.5014,110.4125,5.7278,119.8427-16.2166,40.5249-51.0437,62.885-70.8072,73.296l25.1919,14.6953c32.0638-42.352,69.8418-107.3133,62.98-182.642-4.7212-51.83-43.8891-80.2008-59.9993-168.828a510.139,510.139,0,0,1-6.9062-77.002c-1.137-124.0538,61.5251-165.6219,90.6558-289.1336,28.5083-120.8737,4.7824-234.9221-17.6326-342.67a1126.6276,1126.6276,0,0,0-28.5371-109.3627Z"/><path class="cls-2" d="M1854.6779-44.2657a1526.69,1526.69,0,0,0,24.2442,583.8777c14.6055,61.2955,29.2141,150.506,21.68,256.7407-14.1355,199.3257-98.7112,352.68-91.8489,355.4159,4.0232,1.6042,32.4566-51.363,52.56-113.6926,9.9046-30.7077,15.1849-55.6194,26.8211-121.1741,15.4875-87.2517,23.2314-130.8776,25.1269-149.8544,7.3023-73.1078-2.7854-108.2756-34.6489-307.1587-16.6809-104.1176-25.0212-156.1764-27.1572-177.9273-7.5764-77.1546-10.3059-189.4361,15.92-330.57Z"/></g></svg>