<svg id="Layer_1" data-name="Layer 1" xmlns="http://www.w3.org/2000/svg" width="623.0385" height="237.2803" viewBox="0 0 623.0385 237.2803"><defs><style>.cls-1{fill:#ef4749;}.cls-2{fill:#231f20;}.cls-3{fill:#fff;}.cls-4{fill:#56bdc8;}</style></defs><path d="M621.4331,95.3354l-.1885-.7148-.291-.68a43.5855,43.5855,0,0,0-6.1005-10.2672c-.114-.1455-.23-.2886-.3456-.432-.1141-.1456-.23-.2888-.3458-.4322-.114-.1455-.23-.2886-.3455-.432-.1142-.1456-.23-.2888-.3458-.4322-.1141-.1457-.23-.2889-.346-.4325-.1138-.1452-.2294-.2881-.345-.4312-.1143-.1459-.23-.2893-.3464-.433-.1138-.1452-.2294-.2881-.3449-.4312-.1143-.1459-.23-.2893-.3464-.433-.114-.1454-.23-.2884-.3454-.4317-.114-.1455-.23-.2886-.3456-.432-.1141-.1456-.23-.2887-.3457-.4322-.1141-.1455-.23-.2886-.3456-.432-.1142-.1456-.23-.2887-.3458-.4322-.1141-.1457-.23-.2889-.346-.4325-.1138-.1452-.2294-.2881-.345-.4312-.1143-.1459-.23-.2893-.3463-.433-.1139-.1452-.23-.2881-.345-.4312-.1143-.1459-.23-.2893-.3464-.433-.1139-.1453-.23-.2884-.3454-.4317-.114-.1455-.23-.2886-.3456-.432-.1141-.1455-.23-.2887-.3457-.4322-.1142-.1456-.23-.2889-.346-.4325-.1139-.1452-.23-.2881-.345-.4312-.1143-.1458-.23-.2893-.3464-.433-.1138-.1452-.2294-.2881-.345-.4312-.1143-.1458-.23-.2893-.3463-.4329-.114-.1454-.23-.2885-.3454-.4317-.114-.1456-.23-.2887-.3456-.4321-.1141-.1455-.23-.2887-.3458-.4321-.114-.1456-.23-.2887-.3456-.4321-.1141-.1455-.23-.2887-.3457-.4321-.1142-.1457-.23-.289-.346-.4325-.1139-.1452-.2295-.2882-.345-.4313-.1143-.1458-.23-.2893-.3464-.4329-.1138-.1452-.2294-.2882-.3449-.4312-.1144-.1459-.23-.2894-.3464-.433-.114-.1454-.23-.2885-.3454-.4317-.114-.1455-.23-.2887-.3456-.432-.1141-.1456-.23-.2888-.3458-.4322-.1139-.1454-.23-.2884-.3452-.4317-.1144-.1458-.23-.2893-.3464-.433-.114-.1453-.23-.2884-.3454-.4317-.114-.1455-.23-.2886-.3456-.432-.1141-.1455-.23-.2887-.3458-.4322-.114-.1455-.23-.2886-.3455-.432-.1142-.1455-.23-.2887-.3458-.4321-.1141-.1457-.23-.289-.346-.4325-.1138-.1452-.2294-.2882-.345-.4313-.1143-.1458-.23-.2893-.3464-.4329-.1138-.1452-.2294-.2882-.3449-.4313-.1143-.1458-.23-.2893-.3464-.4329-.114-.1454-.23-.2885-.3454-.4317-.114-.1455-.23-.2887-.3456-.432-.1141-.1456-.23-.2888-.3457-.4322-.1141-.1455-.23-.2887-.3456-.432-.1142-.1456-.23-.2888-.3458-.4322-.1141-.1457-.23-.289-.346-.4325-.1138-.1452-.2294-.2882-.345-.4312-.1143-.1459-.23-.2893-.3463-.433-.114-.1454-.23-.2885-.3454-.4317-.1141-.1455-.23-.2887-.3456-.432-.1142-.1456-.23-.2888-.3458-.4322-.114-.1455-.23-.2887-.3456-.432-.1141-.1456-.23-.2888-.3457-.4322-.1142-.1457-.23-.289-.346-.4325-.1139-.1452-.23-.2882-.345-.4312-.1143-.1459-.23-.2893-.3464-.433-.1138-.1452-.2294-.2882-.345-.4312-.1143-.1459-.23-.2893-.3463-.433-.114-.1454-.23-.2885-.3454-.4317-.114-.1455-.23-.2886-.3456-.432-.1141-.1456-.23-.2888-.3458-.4322-.114-.1455-.23-.2886-.3456-.432-.1141-.1456-.23-.2888-.3457-.4322-.1142-.1457-.23-.2889-.346-.4325-.1139-.1452-.2295-.2881-.345-.4312-.1143-.1459-.23-.2893-.3464-.433-.1138-.1452-.2294-.2881-.3449-.4312-.1144-.1459-.23-.2893-.3464-.433a35.6609,35.6609,0,0,0-8.1-7.6069l-.61-.4131-5.919-2.84L557.3,34.1187h-4.0674l-2.831-.3541h-23.3c-.0748-.0943-.1547-.1818-.23-.2753-.114-.1455-.23-.2886-.3456-.432-.1141-.1456-.23-.2887-.3458-.4322-.1139-.1454-.23-.2884-.3452-.4316-.1144-.1459-.23-.2893-.3464-.433-.114-.1454-.23-.2885-.3454-.4317-.114-.1455-.23-.2886-.3456-.432-.1141-.1456-.23-.2888-.3458-.4322-.114-.1455-.23-.2886-.3455-.432-.1142-.1456-.23-.2888-.3458-.4322-.1141-.1457-.23-.2889-.346-.4325-.1138-.1452-.2294-.2881-.345-.4312-.1143-.1459-.23-.2893-.3464-.433-.1138-.1452-.2294-.2881-.3449-.4312-.1143-.1459-.23-.2893-.3464-.433-.114-.1454-.23-.2884-.3454-.4317-.114-.1455-.23-.2886-.3456-.432-.1141-.1456-.23-.2888-.3457-.4322-.1141-.1455-.23-.2886-.3456-.432-.1142-.1456-.23-.2887-.3458-.4322-.1141-.1457-.23-.2889-.346-.4325-.1138-.1452-.2294-.2881-.345-.4312-.1143-.1459-.23-.2893-.3463-.433-.114-.1454-.23-.2884-.3454-.4317-.1141-.1455-.23-.2886-.3456-.432-.1142-.1456-.23-.2887-.3458-.4322-.114-.1455-.23-.2886-.3456-.432-.1141-.1455-.23-.2887-.3457-.4322-.1142-.1457-.23-.2889-.346-.4325-.1139-.1452-.23-.2881-.345-.4312-.1143-.1459-.23-.2893-.3464-.433-.1138-.1452-.2294-.2881-.345-.4312-.1143-.1458-.23-.2893-.3463-.433-.114-.1453-.23-.2884-.3454-.4317-.114-.1455-.23-.2886-.3456-.432-.1141-.1455-.23-.2887-.3458-.4322-.114-.1455-.23-.2886-.3456-.432-.1141-.1455-.23-.2887-.3457-.4322-.1142-.1456-.23-.2889-.346-.4324-.1139-.1452-.23-.2882-.345-.4313-.1143-.1458-.23-.2893-.3464-.4329-.1138-.1452-.2294-.2882-.3449-.4313-.1144-.1458-.23-.2893-.3464-.4329a35.6587,35.6587,0,0,0-8.1-7.6069l-.61-.4131-5.919-2.84L482.4546.354h-4.0664L475.5562,0H431.83l-.6172.0771c-22.2266,2.7789-36.3193,15.3492-40.7578,36.3521l-.0762.3623-.05.3667c-.2121,1.5709-.3483,3.0676-.4246,4.5077a43.5794,43.5794,0,0,0-8.8644-.8617,62.4129,62.4129,0,0,0-6.8223.3955l-.6719.0742-.6562.1641a35.3561,35.3561,0,0,0-4.295,1.3628,17.8894,17.8894,0,0,0-8.8974-2.2984,21.2771,21.2771,0,0,0-4.6026.52l-1.2021.2671-1.9111.9551-7.2832,2.48-2.628.6567L330.9575,48.65l-3.0234,2.42L325.71,53.4959c-7.505-8.9377-18.8675-13.66-33.5716-13.66a80.4527,80.4527,0,0,0-8.5088.4746l-.9282.0992-.8941.27a72.7986,72.7986,0,0,0-20.2117,9.4137c-.0174-.0228-.0306-.0471-.0482-.07-.0711-.0923-.155-.1708-.2279-.2612-.042-.056-.0749-.1153-.1178-.1709-.0709-.0921-.1547-.17-.2274-.2606-.0421-.0562-.0752-.1156-.1182-.1715-.0711-.0923-.155-.1708-.2279-.2612-.042-.056-.075-.1153-.1178-.1709-.0711-.0922-.1549-.1705-.2277-.2609-.042-.0561-.0751-.1155-.118-.1712-.071-.0922-.1549-.1706-.2276-.2609-.0421-.0561-.0751-.1154-.1181-.1712-.071-.0922-.1548-.17-.2276-.2609-.0421-.0561-.0751-.1155-.1181-.1712-.0709-.0921-.1547-.17-.2274-.2607-.0421-.0561-.0752-.1156-.1182-.1714-.0711-.0924-.155-.1708-.2279-.2612-.042-.056-.075-.1153-.1178-.1709-.071-.0922-.1548-.1706-.2277-.261-.042-.056-.0751-.1154-.118-.1711-.071-.0922-.1549-.1706-.2276-.2609-.0421-.0561-.0751-.1154-.118-.1712-.0711-.0922-.1549-.1706-.2277-.261-.0421-.056-.0751-.1154-.118-.1711-.071-.0922-.1549-.1706-.2276-.2609-.0421-.0561-.0752-.1154-.1181-.1712-.071-.0922-.1548-.1706-.2277-.261-.042-.056-.0751-.1154-.118-.1711-.0711-.0923-.155-.1708-.2279-.2612-.042-.056-.075-.1153-.1178-.1709-.0709-.0921-.1547-.17-.2274-.2606-.0421-.0562-.0752-.1156-.1182-.1715-.0711-.0923-.1551-.1708-.2279-.2612-.042-.056-.075-.1153-.1178-.1709-.071-.0921-.1548-.17-.2275-.2606-.0421-.0562-.0752-.1156-.1182-.1715-.0711-.0923-.155-.1708-.2279-.2612-.042-.056-.0749-.1153-.1178-.1709-.071-.0922-.1548-.1706-.2276-.2609-.0421-.0561-.0752-.1155-.1181-.1712-.071-.0922-.1548-.1706-.2276-.2609-.042-.0561-.0751-.1154-.118-.1712-.0711-.0922-.1549-.1706-.2277-.2609-.042-.0561-.0751-.1155-.118-.1712-.071-.0922-.1549-.1706-.2276-.2609-.0421-.0561-.0752-.1154-.1181-.1712-.071-.0922-.1548-.1705-.2276-.2609-.0421-.0561-.0752-.1155-.1181-.1712-.0711-.0923-.155-.1708-.2279-.2612-.042-.056-.0749-.1152-.1178-.1709-.0709-.0921-.1547-.17-.2274-.2606-.0421-.0562-.0752-.1156-.1182-.1715-.0711-.0923-.1551-.1708-.2279-.2612-.042-.056-.075-.1152-.1178-.1708-.0711-.0923-.1549-.1706-.2277-.261-.042-.0561-.0751-.1155-.118-.1712-.071-.0922-.1549-.1706-.2276-.2609-.0421-.0561-.0752-.1154-.1181-.1711-.071-.0923-.1548-.1706-.2276-.261-.0421-.0561-.0752-.1154-.1181-.1712-.071-.0922-.1548-.1706-.2276-.2609-.042-.0561-.0751-.1154-.118-.1711-.0711-.0923-.1549-.1706-.2277-.261-.042-.0561-.0751-.1154-.118-.1712-.0711-.0923-.1551-.1707-.2279-.2612-.042-.056-.075-.1152-.1178-.1708-.0709-.0921-.1548-.17-.2274-.2607-.0422-.0562-.0752-.1156-.1183-.1715-.0711-.0923-.155-.1707-.2279-.2612-.042-.056-.0749-.1152-.1178-.1708-.0709-.0921-.1547-.17-.2274-.2607-.0421-.0562-.0752-.1156-.1182-.1715-.0711-.0923-.155-.1707-.2279-.2612-.042-.056-.075-.1152-.1178-.1708-.0711-.0923-.1549-.1706-.2277-.261-.042-.056-.0751-.1154-.118-.1712-.071-.0922-.1549-.1706-.2276-.2609-.0421-.0561-.0752-.1154-.1181-.1711-.071-.0923-.1548-.1706-.2276-.261-.0421-.056-.0752-.1154-.1181-.1712-.0709-.0922-.1548-.1706-.2276-.2609-.042-.0561-.0751-.1154-.118-.1711-.0711-.0922-.1549-.1706-.2277-.261-.042-.056-.0751-.1154-.118-.1712-.0711-.0923-.155-.1707-.2279-.2612-.042-.056-.075-.1152-.1178-.1708-.0709-.0921-.1547-.17-.2274-.2607-.0421-.0562-.0752-.1156-.1183-.1715-.0711-.0923-.155-.1707-.2279-.2612-.042-.056-.0749-.1152-.1178-.1708-.0709-.0921-.1547-.17-.2274-.2607-.0421-.0562-.0752-.1156-.1182-.1714-.0711-.0924-.155-.1708-.2279-.2613-.042-.0559-.075-.1152-.1178-.1708-3.1685-4.1138-8.1084-6.3789-13.91-6.3789q-.542,0-1.1064.0254h-3.2842l-2.4126,1.4863a28.619,28.619,0,0,0-5.8271,4.6533,39.6619,39.6619,0,0,0-3.67,4.5005l-.1182.1724L212.32,38.03l-7.4682,7.1631-1.7066.9756-.2876.1914a27.9722,27.9722,0,0,0-4.6174,3.8983c-5.512-6.2686-13.6715-9.454-24.2879-9.454A62.4125,62.4125,0,0,0,167.13,41.2l-.6719.0742-.6558.1641a35.3761,35.3761,0,0,0-4.2959,1.3628,17.8933,17.8933,0,0,0-8.8974-2.2984,21.2806,21.2806,0,0,0-4.6026.52l-1.2026.2671-1.9106.9551-7.2828,2.48-2.6274.6567-11.1118,3.2681-.9235.7387-.225-.2759-.0026-.0112-.343-.4209-.0026-.0112-.3431-.4209-.0026-.0112-.3432-.4209-.0025-.0112-.343-.4208-.0027-.0113-.3431-.4209-.0026-.0112-.343-.4208-.0026-.0113-.3432-.4209-.0025-.0112-.3431-.4209-.0026-.0112-.343-.4209-.0027-.0112-.343-.4209-.0027-.0112-.3431-.4209-.0026-.0112-.343-.4208-.0026-.0113-.3432-.4209-.0025-.0112-.343-.4208-.0027-.0113-.3431-.4209-.0026-.0112-.343-.4209-.0027-.0112-.343-.4209-.0026-.0112-.3431-.4209-.0026-.0112-.343-.4209-.0027-.0112-.343-.4209-.0027-.0112-.3431-.4209-.0026-.0112-.343-.4208-.0026-.0113-.3431-.4209-.0026-.0112-.343-.4208-.0026-.0113-.3432-.4209-.0025-.0112-.3431-.4209-.0027-.0112-.343-.4208-.0026-.0113-.3431-.4209-.0026-.0112-.343-.4208-.0026-.0113-.3432-.4209-.0025-.0112-.3431-.4209-.0026-.0112-.3431-.4209-.0026-.0112-.3431-.4209-.0026-.0112-.343-.4209-.0026-.0112-.3431-.4209-.0026-.0112-.3432-.4209-.0025-.0112-.3431-.4208-.0026-.0113-.3431-.4209-.0026-.0112-.343-.4208-.0026-.0113-.3432-.4209-.0025-.0112-.3431-.4209-.0026-.0112-.343-.4208-.0027-.0113-.3431-.4209-.0026-.0112-.343-.4208-.0026-.0113-.3431-.4209-.0026-.0112-.3432-.4209-.0025-.0112-.343-.4208-.0027-.0113-.3431-.4209-.0026-.0112-.343-.4209-.0027-.0112-.343-.4208-.0026-.0113-.3431-.4209-.0026-.0112-.343-.4208-.0027-.0113-.343-.4209L104.4,26.2l-.3431-.4209-.0026-.0112-.343-.4207-.0026-.0114-.3431-.4209-.0026-.0112-.343-.4207-.0027-.0114-.3431-.4209-.0026-.0112-.343-.4209-.0027-.0112-.343-.4208-.0026-.0113-.3431-.4208-.0026-.0113-.343-.4208-.0026-.0112-.3431-.4209-.0027-.0113-.3431-.4209-.0026-.0111-.343-.4208-.0026-.0114-.3431-.4209-.0026-.0111-.343-.4208L99.56,20.15l-.3432-.4209-.0025-.0111-1.4688-1.8018a19.5767,19.5767,0,0,0-15.6118-7.4756,23.9994,23.9994,0,0,0-4.438.4282l-1.5469.292-1.3828.7535a21.9743,21.9743,0,0,0-9.4936,9.9584l-1.0992,1.6485-50.0293,84.93a18.7777,18.7777,0,0,0-11.3764,8.8056l-1,1.7163L0,131.9312l1.519,2.8515A15.3568,15.3568,0,0,0,3.63,137.8041c.1178.1418.222.2936.3452.4315.1182.1422.2226.2944.3461.4327.1179.1418.222.2936.3452.4315.1182.1422.2226.2944.3462.4327.1179.1419.2221.2938.3454.4318.1181.142.2223.294.3457.4321.118.142.2223.294.3457.4321.118.142.2223.294.3456.4321.1181.142.2223.294.3457.4321.1181.1421.2225.2942.346.4324.1178.1418.2219.2935.3452.4315.1181.1422.2226.2944.3461.4327.1179.1418.222.2935.3452.4315.1182.1422.2226.2944.3462.4327.1179.1419.2221.2938.3454.4318.1181.142.2223.294.3457.432.118.1421.2222.2941.3457.4322.118.142.2222.294.3456.432.118.1421.2223.294.3457.4322.1181.1421.2225.2942.346.4323.1178.1419.2219.2936.3452.4316.1181.1422.2226.2944.3461.4326.1179.142.2221.2939.3455.4319.118.142.2222.294.3456.432.118.1421.2223.294.3457.4322.118.142.2223.294.3456.432.1181.1421.2223.294.3457.4322.1181.1421.2225.2941.346.4323.1179.1419.222.2936.3452.4316.1182.1422.2226.2944.3461.4326.1179.1419.222.2936.3453.4315.1181.1423.2225.2945.3461.4327.1179.142.2221.2938.3454.4318.1181.1421.2223.2941.3457.4321.118.142.2223.294.3457.4321.118.1421.2223.2941.3456.4321.1181.142.2223.294.3457.4321.1181.1422.2225.2942.346.4324.1178.1419.222.2936.3452.4315.1181.1421.2224.2943.3459.4325.118.142.2223.294.3456.432.1181.1421.2223.294.3457.4322.1181.1421.2225.2942.346.4323.1178.1419.222.2936.3452.4316.1182.1422.2226.2944.3461.4326.1179.1419.222.2936.3452.4316.1182.1422.2226.2944.3462.4326.1179.142.2221.2939.3454.4319.1181.142.2223.294.3457.432.118.1421.2223.294.3457.4322.118.142.2223.294.3456.432.1181.142.2223.294.3457.4321.1181.1422.2225.2942.346.4324.1178.1419.2219.2936.3452.4315.1181.1423.2226.2945.3461.4327.1179.1419.222.2936.3452.4315.1182.1422.2226.2945.3462.4327.1179.142.2221.2938.3454.4318.1181.1421.2223.294.3457.4321.118.142.2222.294.3457.4321.1181.1422.2224.2942.3459.4324.1179.1419.222.2936.3452.4315.1182.1422.2226.2945.3461.4327.1179.1419.222.2936.3453.4315.1181.1422.2226.2945.3461.4327.1179.142.2221.2938.3455.4318.118.1421.2222.294.3456.4321.118.142.2223.294.3457.4321.118.1421.2223.294.3456.4321.1181.142.2223.294.3457.4321.1181.1422.2225.2942.346.4324.1178.1418.222.2936.3452.4315.1182.1422.2226.2944.3461.4327.1179.1418.222.2936.3453.4315.1181.1422.2225.2944.3461.4327.1179.142.2221.2938.3454.4318.1181.142.2223.294.3457.4321.118.142.2223.294.3457.4321.118.142.2223.294.3456.4321.1181.142.2223.294.3457.4321,2.4512,2.9493,6.0419,5.0662,10.7516,6.2845l1.2319.3189H74.61l1.3427-.3823a23.9656,23.9656,0,0,0,7.5694-3.6558l1.8818-1.37,1.084-2.06c2.8634-5.4413,4.0326-10.365,3.5063-14.7112a132.9528,132.9528,0,0,0,10.3731,15.4266c.1137.1463.23.2847.344.43.1148.1477.2322.2876.3474.4343.1137.1463.23.2847.3439.43.1149.1477.2323.2876.3474.4343s.2306.2855.345.4312.2309.286.3455.4318.2312.2863.3458.4323.2309.2861.3455.4319.2312.2863.3459.4323.2316.2868.3464.4331.23.2847.344.43c.1148.1477.2322.2876.3474.4343.1137.1463.23.2847.3439.43.1149.1477.2322.2876.3474.4343s.2306.2855.345.4311.2309.286.3454.4319.2312.2863.3459.4323.2309.286.3455.4319.2312.2863.3459.4323.2315.2868.3464.4331.23.2846.3439.43c.1149.1478.2323.2877.3475.4344s.23.2855.3449.4311.2309.286.3455.4318.2312.2864.3459.4324.2309.286.3454.4318.2312.2864.3459.4324.2316.2868.3465.4331.23.2846.3439.43c.1149.1478.2322.2877.3474.4344.1137.1463.23.2846.3439.43.1149.1478.2323.2877.3474.4344s.2306.2855.345.4311.2309.286.3455.4318.2312.2863.3459.4324.2309.286.3454.4318.2312.2863.3459.4324.2316.2868.3464.433.23.2847.344.43c.1145.1474.2317.2871.3467.4334s.2308.286.3454.4318.2312.2864.3459.4324.2316.2868.3464.4331.23.2846.344.43c.1148.1478.2322.2877.3474.4344s.23.2846.3439.43c.1149.1478.2323.2877.3474.4344s.2306.2855.345.4311.2309.286.3455.4318.2312.2864.3458.4324.2309.286.3455.4318.2312.2863.3459.4324.2316.2868.3464.4331.23.2846.344.43c.1148.1478.2322.2877.3474.4343.1137.1463.23.2847.3439.43.1149.1478.2322.2877.3474.4343s.2306.2856.345.4312.2309.286.3454.4318.2312.2863.3459.4324.2316.2868.3465.433.23.2847.3439.43c.1149.1478.2322.2877.3474.4343s.23.2847.3439.43c.1149.1478.2323.2877.3475.4343s.2305.2856.3449.4312.2309.286.3455.4318.2312.2863.3459.4324.2309.286.3454.4318.2312.2863.3459.4324.2316.2868.3464.433.23.2847.344.43c.1149.1478.2322.2877.3474.4343.1137.1463.23.2847.3439.43.1149.1478.2323.2876.3474.4343s.2306.2855.345.4312.2309.286.3455.4318.2312.2863.3459.4324.2309.286.3454.4318.2312.2863.3459.4324c15.7511,20.26,34.6663,30.4887,56.5168,30.49h.0034a77.21,77.21,0,0,0,18.3135-2.3057l.4931-.1211,9.1441-3.251,12.0952-6.4511,1.4014-1.1221A55.0931,55.0931,0,0,0,239.29,211.1719l.1079-.1582c6.0489-9.0015,8.879-18.1382,8.4126-27.1563l-.0981-1.8945-.7852-1.7271a31.303,31.303,0,0,0-2.1781-4.0148c.195.02.3859.0506.5824.0666l.3194.02q1.2312.0608,2.435.0606h.0015a39.5476,39.5476,0,0,0,29.7893-12.8006c7.2533,7.9542,17.6188,12.1408,30.68,12.1414h.0025a72.6291,72.6291,0,0,0,9.9341-.7237l.7124-.0986.6909-.2a68.356,68.356,0,0,0,21.4518-10.2059c.0749.0936.15.187.2241.2779.1164.1466.2333.2944.3477.4345.115.145.2306.291.3437.43.1164.1466.2333.2944.3476.4345.1155.1455.2314.292.3448.431.1157.1457.2318.2925.3455.4319.1158.1459.2321.2928.3459.4323.1156.1457.2318.2925.3454.4319.1158.1459.2321.2928.3459.4323a21.1923,21.1923,0,0,0,4.7695,4.6628l2.5137,1.67H426.811l.6553-.0874a21.2175,21.2175,0,0,0,5.461-1.4609l2.3662,1.4726H480.73c.0375.0474.0754.0926.113.1394.1143.1491.2305.2887.3458.4323.1142.149.23.2884.3456.4319.1143.1491.23.2887.3458.4323.1144.1493.2307.2889.3462.4327.1139.1486.23.2876.3445.4307.1147.1494.2312.29.3468.4335.1142.1489.23.2881.3452.4315.1142.149.23.2884.3456.4319.1143.149.23.2887.3458.4323.1142.149.23.2884.3455.4319.1143.149.2305.2887.3458.4323.1145.1493.2307.2889.3462.4327.114.1485.23.2876.3446.4307.1146.1494.2311.2894.3468.4335.1139.1485.23.2876.3445.4306.1146.15.2312.29.3468.4336.1142.1488.23.2881.3452.4315.1142.149.23.2884.3456.4319.1143.149.23.2887.3458.4323.1142.149.23.2884.3455.4319.1143.149.2305.2887.3458.4323.1145.1493.2307.2889.3462.4327.114.1485.23.2876.3446.4306.1145.1493.2307.2892.3463.433.1142.149.23.2884.3455.4319.1143.1491.2305.2887.3458.4323.1145.1493.2307.2889.3462.4327.114.1486.23.2876.3446.4307.1146.1494.2311.2894.3468.4335.1139.1486.23.2876.3445.4307.1146.1494.2311.2894.3468.4335.1141.1489.23.2881.3452.4315.1142.149.23.2884.3455.4319.1144.149.2305.2887.3459.4323.1142.149.23.2884.3455.4319.1143.149.23.2887.3458.4323.1144.1493.2307.2889.3462.4327.1139.1485.23.2876.3445.4306.1147.15.2312.29.3468.4336.114.1485.23.2876.3446.4306.1146.1495.2311.29.3468.4336.1141.1488.23.2881.3452.4315.1142.149.23.2884.3455.4319.1143.149.2305.2887.3458.4323.1145.1493.2308.2889.3462.4327.114.1485.23.2876.3446.4306.1146.1495.2311.29.3468.4336.1139.1485.23.2876.3445.4306.1146.15.2312.29.3468.4336.1142.1488.23.2881.3452.4315.1142.149.23.2884.3456.4319.1143.149.23.2887.3458.4323.1142.149.23.2884.3455.4319.1143.149.23.2887.3458.4323.1145.1493.2307.2889.3462.4326.114.1486.23.2876.3446.4307.1146.1495.2311.29.3468.4335.1139.1486.23.2876.3445.4307.1146.15.2312.29.3468.4335.1141.1489.23.2882.3452.4316.1142.1489.23.2884.3455.4318.1144.1491.23.2887.3459.4324.1142.1489.23.2883.3455.4318.1143.1491.2305.2887.3458.4324a18.1,18.1,0,0,0,4.74,4.4575l2.4288,1.5136H574.8l1.5586-.52c24.0908-2.666,34.3808-15.7876,38.7734-26.4712,9.3223-21.4082,5.5528-36.247-1.3857-46.08C622.4468,122.9126,625.1069,109.2949,621.4331,95.3354Z"/><path class="cls-1" d="M196.6548,145.6479q-15.2249,7.4342-5.1333,21.417-13.9842,11.3254-28.8506,10.6206-30.624-2.1247-51.33-75.4023L93.9946,27.2349q-3.895-4.7784-10.4428-3.54a11.8237,11.8237,0,0,0-5.4873,6.0176l-1.4161,2.124-51.5068,87.438-1.9468,1.416a9.1331,9.1331,0,0,0-7.7881,4.6021l-1.062,7.7881q1.4143,2.655,6.1949,3.894H49.2139a13.9343,13.9343,0,0,0,4.4248-2.124q7.0773-13.4495-6.0181-14.5142l.8853-2.478,8.85-13.4517h26.727l.354.708q8.1394,30.0924,9.0274,31.3286,30.2665,69.7347,83.0127,56.8179l7.9653-2.832,10.62-5.6641.8853-.709a46.2036,46.2036,0,0,0,11.1509-10.62q7.2553-10.798,6.726-21.063Q208.5137,140.6919,196.6548,145.6479ZM80.3657,84.937H67.7988l.8848-1.062,1.9473-3.7168.708-1.062L77.0024,68.83l.708,1.77.1773,1.416.708,2.478,3.186,10.0889Z"/><path class="cls-1" d="M123.5537,132.55H195.062a9.86,9.86,0,0,0,4.4248-1.5933l1.2388-1.77.8852-7.2568a9.6676,9.6676,0,0,0-7.434-4.7793l3.7172-29.2046q7.9644-37.5226-25.665-33.8071a20.1515,20.1515,0,0,0-8.1421,3.894q-3.5427-5.6631-9.9121-4.248l-1.416.708-8.3189,2.832-1.416.354-1.416.354-9.0268,2.6548-.8853.708L129.749,63.52,128.51,71.8389a7.6749,7.6749,0,0,0,8.1421,3.3632l-5.8409,41.9488q-11.151,1.95-10.0893,12.39A14.1861,14.1861,0,0,0,123.5537,132.55Zm37.8779-53.1a24.5847,24.5847,0,0,1,8.3194-5.31,5.2794,5.2794,0,0,1,4.0708,2.4781,10.09,10.09,0,0,1,.1772,3.186,17.7446,17.7446,0,0,1-.5312,2.6548l-4.0708,29.0283q-.3567,1.593-.62,3.0088-.2658,1.4187-.62,2.6548-6.7287,2.3027-12.0361,0Z"/><path class="cls-1" d="M247.63,110.4253q-6.7288-2.655-11.8589,3.54h-1.77v-2.4775l5.31-38.4092q16.4613,1.771,16.2842-12.7441-1.2406-6.3722-13.6294-5.4868,4.9535-18.76-7.08-18.0542h-.708a18.5972,18.5972,0,0,0-3.8056,3.0092,29.5682,29.5682,0,0,0-2.7437,3.3628l-.354.5313-1.2388,1.416-1.2392,1.416-1.2388,1.4155-8.6733,8.3194-2.4776,1.416a18.1894,18.1894,0,0,0-4.602,4.4248l-.8853,6.1953a9.8772,9.8772,0,0,0,7.6113,5.31l-6.372,44.4272.354,2.8321a10.93,10.93,0,0,1,.708,3.7168q4.248,9.027,12.9209,9.7353,18.0542.8877,28.32-14.5141Q252.0549,113.6127,247.63,110.4253Z"/><path class="cls-1" d="M288.6929,53.2539q-36.9962,11.1512-36.4619,48.144,3.8913,36.8175,40.8877,31.6832Q329.2242,122.64,329.9331,84.76,326.7486,49.1829,288.6929,53.2539Zm14.5136,40.1792a36.2076,36.2076,0,0,1-7.08,20.709,23.4021,23.4021,0,0,1-5.3106,2.832,11.6837,11.6837,0,0,1-6.5488-2.124,31.2375,31.2375,0,0,1-4.9551-18.7622,31.9479,31.9479,0,0,1,6.3711-23.3638,18.2893,18.2893,0,0,1,5.6641-2.832,16.5474,16.5474,0,0,1,3.3632.62,19.3986,19.3986,0,0,1,2.8321,1.15A28.3035,28.3035,0,0,1,303.2065,93.4331Z"/><path class="cls-1" d="M401.2642,117.1509l3.7168-29.2046q7.9657-37.5226-25.6651-33.8071a20.1525,20.1525,0,0,0-8.1416,3.894q-3.5435-5.6631-9.9121-4.248l-1.416.708-8.3193,2.832-1.4161.354-1.416.354-9.0263,2.6548-.8848.708-1.9473,2.124-1.2392,8.3189a7.6739,7.6739,0,0,0,8.1416,3.3632l-5.8409,41.9488q-11.15,1.95-10.0888,12.39a14.1989,14.1989,0,0,0,2.832,3.0093h71.5078a9.8638,9.8638,0,0,0,4.4258-1.5933l1.2383-1.77.8848-7.2568A9.6654,9.6654,0,0,0,401.2642,117.1509ZM381.0864,79.8042a17.7446,17.7446,0,0,1-.5312,2.6548l-4.0713,29.0283q-.356,1.593-.6192,3.0088-.2651,1.4187-.6191,2.6548-6.7295,2.3027-12.0361,0l5.31-37.7007a24.5847,24.5847,0,0,1,8.3194-5.31,5.28,5.28,0,0,1,4.0713,2.4781A10.1033,10.1033,0,0,1,381.0864,79.8042Z"/><path class="cls-1" d="M576.6115,103.4045q16.46-17.3445,11.15-37.5239a29.1222,29.1222,0,0,0-10.2656-13.0982l-4.4248-2.1235-13.0987-3.54h-3.3623l-2.832-.354H513.8473a36.3452,36.3452,0,0,0-.9309-14.6489q-3.7164-8.67-10.2656-13.0981l-4.4248-2.1236-13.0987-3.54H481.765L478.933,13H436.4525q-26.9062,3.3641-32.2139,28.4966-3.0117,22.3021,15.93,15.7534,12.0353-10.9731,6.7266-22.833,5.84-3.0081,10.7969-2.3013l.1767,2.3013-10.7968,77.1719-.7081,2.3007a7.9709,7.9709,0,0,1-2.832,1.416q-13.4531-.1743-12.39,13.8062a10.7674,10.7674,0,0,0,3.0088,3.3628h60.18l1.0625-.354q23.286-2.2065,31.0514-19.1251l-4.5271,32.3575-.708,2.3008a7.9646,7.9646,0,0,1-2.8321,1.416q-13.4531-.1743-12.39,13.8066a10.7749,10.7749,0,0,0,3.0088,3.3633h60.18l1.0625-.3545q24.2475-2.2983,31.6826-20.5322Q593.6033,118.6286,576.6115,103.4045Zm-95.3777-3.32q-6.3721,16.46-26.3731,11.8589l3.0088-22.125q.3531-2.6552.62-4.7793a15.6577,15.6577,0,0,1,.9727-3.8936Q485.1249,79.3779,481.2338,100.0842Zm4.4248-50.4453q-5.31,14.1627-23.541,10.0893l3.0087-20.8862a15.1127,15.1127,0,0,1,1.0625-5.6641Q488.1337,30.7016,485.6586,49.6389Zm24.9562,33.5474A29.2737,29.2737,0,0,0,501.766,69.64c.7779-.82,1.51-1.6455,2.2146-2.4747a16.5361,16.5361,0,0,1,8.5567-1.2845l.1768,2.3012Zm45.4645,50.662q-6.3722,16.4606-26.3731,11.8594l3.0088-22.125q.3531-2.655.62-4.7793a15.6569,15.6569,0,0,1,.9727-3.8935Q559.97,113.1425,556.0793,133.8483Zm4.4248-50.4448q-5.31,14.1629-23.541,10.0894l3.0088-20.8863a15.1122,15.1122,0,0,1,1.0625-5.664Q562.9791,64.4663,560.5041,83.4035Z"/><path class="cls-2" d="M372.8384,70.14a5.28,5.28,0,0,1,4.0713,2.4781,10.1033,10.1033,0,0,1,.1767,3.186,17.7446,17.7446,0,0,1-.5312,2.6548l-4.0713,29.0283q-.356,1.593-.6192,3.0088-.2651,1.4187-.6191,2.6548a19.701,19.701,0,0,1-6.3729,1.1513,14.0781,14.0781,0,0,1-5.6632-1.1513l5.31-37.7007a24.5847,24.5847,0,0,1,8.3194-5.31m0-2a1.9986,1.9986,0,0,0-.6577.1113,26.6615,26.6615,0,0,0-9.0125,5.724,2,2,0,0,0-.63,1.1959l-5.31,37.7006a2,2,0,0,0,1.1848,2.1139,16.1334,16.1334,0,0,0,6.4589,1.3164,21.7821,21.7821,0,0,0,7.02-1.259,2,2,0,0,0,1.2762-1.345c.2546-.8949.4771-1.8487.6614-2.8347.1794-.9569.383-1.9464.605-2.94q.0176-.0786.0288-.1584l4.0526-28.895a19.9819,19.9819,0,0,0,.5536-2.816,12.1289,12.1289,0,0,0-.1993-3.8254,2.0016,2.0016,0,0,0-.3182-.75,7.3042,7.3042,0,0,0-5.5715-3.3332c-.0477-.0035-.0956-.0052-.1434-.0052Z"/><path class="cls-2" d="M287.3472,65.8921a16.5474,16.5474,0,0,1,3.3632.62,19.3986,19.3986,0,0,1,2.8321,1.15,28.3035,28.3035,0,0,1,5.664,21.771,36.2076,36.2076,0,0,1-7.08,20.709,23.4021,23.4021,0,0,1-5.3106,2.832,11.6837,11.6837,0,0,1-6.5488-2.124,31.2375,31.2375,0,0,1-4.9551-18.7622,31.9479,31.9479,0,0,1,6.3711-23.3638,18.2893,18.2893,0,0,1,5.6641-2.832m0-2a2.0006,2.0006,0,0,0-.5655.0816,20.3815,20.3815,0,0,0-6.28,3.1367,1.9981,1.9981,0,0,0-.4219.4181,34.0172,34.0172,0,0,0-6.7732,24.6166,33.33,33.33,0,0,0,5.27,19.7745,2.0015,2.0015,0,0,0,.5068.543,13.6965,13.6965,0,0,0,7.6426,2.51q.0447.002.0894.002a2,2,0,0,0,.6719-.1162A25.4946,25.4946,0,0,0,293.26,111.79a1.9992,1.9992,0,0,0,.4807-.4672,38.33,38.33,0,0,0,7.4615-21.73,30.343,30.343,0,0,0-6.0779-23.1534,2.001,2.001,0,0,0-.6914-.5672,21.495,21.495,0,0,0-3.1242-1.268,18.6009,18.6009,0,0,0-3.7789-.7029c-.0609-.0056-.122-.0084-.1829-.0084Z"/><path class="cls-2" d="M165.751,70.14a5.2794,5.2794,0,0,1,4.0708,2.4781,10.09,10.09,0,0,1,.1772,3.186,17.7446,17.7446,0,0,1-.5312,2.6548l-4.0708,29.0283q-.3567,1.593-.62,3.0088-.2658,1.4187-.62,2.6548a19.698,19.698,0,0,1-6.3727,1.1513,14.0791,14.0791,0,0,1-5.6634-1.1513l5.31-37.7007a24.5847,24.5847,0,0,1,8.3194-5.31m0-2a1.9992,1.9992,0,0,0-.6578.1113,26.6606,26.6606,0,0,0-9.0125,5.724,2,2,0,0,0-.63,1.1959l-5.31,37.7006a2,2,0,0,0,1.1848,2.1139,16.1333,16.1333,0,0,0,6.4591,1.3164,21.7768,21.7768,0,0,0,7.02-1.2591,2,2,0,0,0,1.2755-1.3428c.2524-.8836.4753-1.8378.6623-2.8358.18-.9615.384-1.9508.6055-2.94q.0177-.0791.029-.1592L171.43,78.87a19.9833,19.9833,0,0,0,.5536-2.8159,12.1174,12.1174,0,0,0-.2-3.8269,2,2,0,0,0-.3177-.7483,7.3023,7.3023,0,0,0-5.5712-3.3336c-.0477-.0035-.0956-.0052-.1433-.0052Z"/><path class="cls-2" d="M73.0024,64.83l.708,1.77.1773,1.416.708,2.478,3.186,10.0889-1.416.354H63.7988l.8848-1.062,1.9473-3.7168.708-1.062L73.0024,64.83m0-2a2,2,0,0,0-1.7507,1.034L65.6282,74.0566l-.6614.9922a2.0031,2.0031,0,0,0-.1075.1812l-1.8485,3.5283-.7486.8985a2,2,0,0,0,1.5366,3.28H76.3657a1.9976,1.9976,0,0,0,.4851-.06l1.416-.354a2,2,0,0,0,1.4221-2.5426L76.5112,69.9182l-.6581-2.3034-.1581-1.2631a2.0021,2.0021,0,0,0-.1276-.4944l-.708-1.77a2,2,0,0,0-1.7334-1.2534q-.0623-.0039-.124-.0039Z"/><path class="cls-2" d="M459.3166,77.0062q21.5013,0,17.9172,19.078-4.98,12.8637-18.2831,12.865a36.23,36.23,0,0,1-8.09-1.0061l3.0088-22.125q.3531-2.6552.62-4.7793a15.6577,15.6577,0,0,1,.9727-3.8936q2.019-.1391,3.8543-.139m0-2c-1.2638,0-2.6068.0483-3.9918.1437a2,2,0,0,0-1.7193,1.252,17.7313,17.7313,0,0,0-1.1,4.389q-.2657,2.1158-.6181,4.7635l-3.008,22.1192a2,2,0,0,0,1.533,2.2185,38.3875,38.3875,0,0,0,8.5387,1.0571c9.7364,0,16.5152-4.7584,20.1482-14.143a2.0017,2.0017,0,0,0,.1005-.3527c1.2435-6.6194.3445-11.8193-2.6721-15.4555-3.2985-3.9759-9.0891-5.9918-17.2107-5.9918Z"/><path class="cls-2" d="M541.7834,62.6562q16.9092,0,14.7207,16.7473-4.1242,11-16.0417,10.9993a34.5815,34.5815,0,0,1-7.4993-.91l3.0088-20.8863a15.1122,15.1122,0,0,1,1.0625-5.664,42.475,42.475,0,0,1,4.749-.2864m0-2a44.6922,44.6922,0,0,0-4.9733.299A2,2,0,0,0,535.1774,62.2a17.14,17.14,0,0,0-1.2049,6.2595l-2.989,20.7484a2,2,0,0,0,1.5434,2.237,36.7223,36.7223,0,0,0,7.9355.9581c8.8278,0,14.855-4.1374,17.9144-12.2972a1.9989,1.9989,0,0,0,.11-.4427c.8042-6.1484-.2255-10.9036-3.0606-14.1337-2.838-3.2335-7.4283-4.873-13.6432-4.873Z"/><path class="cls-2" d="M534.1621,110.7708q21.5013,0,17.9172,19.0775-4.98,12.8648-18.2838,12.8653a36.233,36.233,0,0,1-8.0893-1.0059l3.0088-22.125q.3531-2.655.62-4.7793a15.6569,15.6569,0,0,1,.9727-3.8935q2.019-.139,3.8543-.1391m0-2c-1.2637,0-2.6068.0484-3.9918.1438a2,2,0,0,0-1.7193,1.252,17.729,17.729,0,0,0-1.1,4.389q-.2657,2.1156-.6181,4.7635l-3.008,22.1191a2,2,0,0,0,1.5331,2.2185,38.3857,38.3857,0,0,0,8.5379,1.0569c9.7368,0,16.5159-4.7585,20.1489-14.1433a1.9992,1.9992,0,0,0,.1005-.3527c1.2436-6.619.3446-11.8188-2.672-15.4549-3.2985-3.9759-9.089-5.9919-17.2108-5.9919Z"/><path class="cls-2" d="M466.9379,28.8915q16.9092,0,14.7207,16.7474-4.1242,11-16.0417,10.9993a34.582,34.582,0,0,1-7.4993-.91l3.0087-20.8862a15.1127,15.1127,0,0,1,1.0625-5.6641,42.5019,42.5019,0,0,1,4.7491-.2864m0-2a44.6922,44.6922,0,0,0-4.9733.299,2,2,0,0,0-1.6327,1.2446,17.1389,17.1389,0,0,0-1.2049,6.26l-2.989,20.7485a2,2,0,0,0,1.5433,2.237,36.7294,36.7294,0,0,0,7.9356.9581c8.8277,0,14.855-4.1374,17.9143-12.2972a1.9991,1.9991,0,0,0,.1105-.4427c.8042-6.1485-.2255-10.9037-3.0606-14.1337-2.8381-3.2335-7.4283-4.8731-13.6432-4.8731Z"/><path class="cls-2" d="M506.6444,61.7483a13.4189,13.4189,0,0,1,1.8929.1323l.1768,2.3012-2.0993,15.0045A29.2737,29.2737,0,0,0,497.766,65.64c.7779-.82,1.51-1.6455,2.2146-2.4747a17.828,17.828,0,0,1,6.6638-1.4168m0-2a19.8853,19.8853,0,0,0-7.4121,1.5621,2.0011,2.0011,0,0,0-.7755.5592c-.7517.8842-1.4522,1.6672-2.1416,2.3935a2,2,0,0,0,.1161,2.8663,27.44,27.44,0,0,1,8.2669,12.6285,2,2,0,0,0,1.9155,1.4284c.05,0,.1009-.0019.1518-.0057a2,2,0,0,0,1.83-1.7172l2.0993-15.0044a2.0045,2.0045,0,0,0,.0134-.43l-.1768-2.3013a2,2,0,0,0-1.7124-1.8269,15.4927,15.4927,0,0,0-2.1746-.1522Z"/><path class="cls-3" d="M156.5387,192.28c-27.978-.0015-50.8413-19.9707-67.9546-59.3521-.3706-.5879-1.4458-3.21-9.0864-31.455l-.0332-.066h-25.57l-8.4874,12.9009-.4189,1.1724c3.6685.5093,6.126,1.86,7.3154,4.0229,1.5254,2.7744.9429,6.6382-1.78,11.8135a1.0008,1.0008,0,0,1-.2964.3428,14.9969,14.9969,0,0,1-4.7393,2.2773.9969.9969,0,0,1-.2739.0381H16.54a1.0089,1.0089,0,0,1-.25-.0317c-3.4536-.8936-5.7505-2.3711-6.8272-4.3921a1.0027,1.0027,0,0,1-.1079-.6055l1.062-7.7881a.99.99,0,0,1,.127-.3681,10.0571,10.0571,0,0,1,8.2925-5.0738l1.55-1.1274L71.7867,27.3294,73.1779,25.24a12.8517,12.8517,0,0,1,5.8955-6.4229.9977.9977,0,0,1,.2929-.1045,14.9482,14.9482,0,0,1,2.7671-.272A10.7064,10.7064,0,0,1,90.77,22.6028a1,1,0,0,1,.1992.4068l17.3462,75.0483c13.6025,48.1275,30.5717,73.2525,50.4253,74.63.5429.0254,1.1064.0391,1.6694.0391,8.7637,0,17.4243-3.3164,25.7534-9.8579-3.1431-4.6231-4.27-8.8208-3.35-12.4893.9561-3.8105,4.12-7.0508,9.4023-9.63a18.0935,18.0935,0,0,1,6.9214-1.5771c5.045,0,8.9463,2.9565,11.5967,8.7881a.987.987,0,0,1,.0884.3618c.3638,7.0307-1.9561,14.3222-6.8945,21.6723a47.3886,47.3886,0,0,1-11.4,10.876l-.8414.6758a1.01,1.01,0,0,1-.1543.1016l-10.62,5.664a.9773.9773,0,0,1-.1357.06l-7.9654,2.832a.9655.9655,0,0,1-.0971.0288,68.221,68.221,0,0,1-16.1729,2.0474ZM76.2428,79.9368l.2656-.0664-2.8662-9.0752-.7158-2.5044a.9858.9858,0,0,1-.0308-.1508l-.1069-.8526-4.5742,8.2915-.7217,1.0889L65.78,79.9368Z"/><path class="cls-2" d="M82.1335,19.4409a9.7091,9.7091,0,0,1,7.8611,3.794l17.3462,75.0483q20.7086,73.2782,51.33,75.4023.8712.0414,1.7386.0413,13.9474,0,27.112-10.6619-10.0884-13.984,5.1333-21.417a16.96,16.96,0,0,1,6.4826-1.4754q6.9561,0,10.6863,8.2015.531,10.2635-6.726,21.063a46.2036,46.2036,0,0,1-11.1509,10.62l-.8853.709-10.62,5.6641-7.9653,2.832a66.9207,66.9207,0,0,1-15.9378,2.0187q-41.5373,0-67.0749-58.8366-.8884-1.2355-9.0274-31.3286l-.354-.708H53.3555l-8.85,13.4517-.8852,2.478q13.0963,1.062,6.0181,14.5142a13.9333,13.9333,0,0,1-4.4248,2.124H16.54q-4.7791-1.2363-6.1949-3.894l1.062-7.7881a9.1331,9.1331,0,0,1,7.7881-4.6021l1.9468-1.416,51.5068-87.438,1.4161-2.124a11.8237,11.8237,0,0,1,5.4873-6.0176,13.9156,13.9156,0,0,1,2.5817-.2544M63.7988,80.937H76.3657l1.416-.354-3.186-10.0889-.708-2.478L73.71,66.6l-.708-1.77L67.3389,75.0962l-.7081,1.062L64.6836,79.875l-.8848,1.062M82.1337,17.4409h0a15.9866,15.9866,0,0,0-2.953.2891,2.0015,2.0015,0,0,0-.586.2092,13.8307,13.8307,0,0,0-6.301,6.8245l-1.3093,1.9638c-.02.0309-.04.0623-.0591.0943l-51.296,87.08-1.1612.8446a10.9552,10.9552,0,0,0-8.7891,5.5394,1.999,1.999,0,0,0-.2538.7369l-1.062,7.7881a1.9987,1.9987,0,0,0,.2165,1.21c1.2135,2.2783,3.7232,3.9236,7.459,4.89a2.0023,2.0023,0,0,0,.501.0637H45.2139a1.9978,1.9978,0,0,0,.5478-.0765,15.9955,15.9955,0,0,0,5.0537-2.43,2.0007,2.0007,0,0,0,.5932-.6859C54.3,126.2871,54.88,122.113,53.18,119.0217c-1.2071-2.1954-3.5-3.6443-6.8322-4.3235l8.086-12.291H78.7142c7.2227,26.68,8.4832,30.12,8.98,30.9814,8.5766,19.72,18.6657,34.7537,29.9883,44.6856,11.5028,10.09,24.5761,15.2062,38.8567,15.2062a69.2455,69.2455,0,0,0,16.4135-2.0761,1.9879,1.9879,0,0,0,.1942-.0582l7.9654-2.832a1.991,1.991,0,0,0,.2712-.12l10.62-5.6641a2,2,0,0,0,.3091-.2036l.8424-.6747a48.2986,48.2986,0,0,0,11.5819-11.0681c5.0837-7.5653,7.46-15.0619,7.0849-22.3132a1.9994,1.9994,0,0,0-.1765-.7243c-2.8273-6.22-7.0353-9.3739-12.507-9.3739a19.0046,19.0046,0,0,0-7.2537,1.63q-.054.0225-.1066.0481c-5.56,2.7152-8.9027,6.1758-9.9338,10.2859-.9389,3.7424.062,7.9438,2.9747,12.5085-7.9248,6.0282-16.1279,9.0817-24.4086,9.0817-.5446,0-1.0976-.0131-1.6439-.039-19.338-1.3422-36.0021-26.2056-49.4871-73.9023L91.9433,22.7845a2.0011,2.0011,0,0,0-.3984-.8133,11.6666,11.6666,0,0,0-9.4112-4.53ZM68.3535,77.18l.65-.9742c.031-.0465.06-.0944.0871-.1433l3.3049-5.9906.2776.9719.016.0528,2.476,7.8406H67.4329l.9206-1.7572Z"/><path class="cls-3" d="M119.5538,129.55a1,1,0,0,1-.5532-.167,14.8459,14.8459,0,0,1-3.0723-3.2334,1.0008,1.0008,0,0,1-.2011-.5078c-.7334-7.206,2.7881-11.8057,10.1924-13.3389l5.5644-39.9624q-.2739.0147-.5415.0147a8.5534,8.5534,0,0,1-7.2485-3.9385,1.0012,1.0012,0,0,1-.1734-.7256l1.2393-8.3188a1.003,1.003,0,0,1,.2519-.5283l1.9468-2.1241a.9989.9989,0,0,1,.1128-.1049l.8853-.7081a.9955.9955,0,0,1,.3423-.1787l9.0268-2.6548,2.8716-.7187,8.1748-2.7866,1.3555-.6778a.99.99,0,0,1,.23-.0815,12.2778,12.2778,0,0,1,2.6514-.3066,9.2285,9.2285,0,0,1,7.7051,4.0869,22.0571,22.0571,0,0,1,7.6719-3.42,1.1029,1.1029,0,0,1,.1328-.024,53.5326,53.5326,0,0,1,5.8335-.3408c8.2148,0,14.2656,2.3272,17.9838,6.9175,4.7164,5.8228,5.7041,15.3887,2.9356,28.4321L191.2916,112.31a10.66,10.66,0,0,1,7.1675,5.09.9993.9993,0,0,1,.1445.6509l-.8852,7.2568a1.004,1.004,0,0,1-.1734.4522l-1.2387,1.77a1.0056,1.0056,0,0,1-.2456.2461,10.89,10.89,0,0,1-4.8667,1.7651.9906.9906,0,0,1-.1319.0088Zm33.6675-17.0371a13.2608,13.2608,0,0,0,4.564.7891,18.4076,18.4076,0,0,0,5.55-.9327c.1709-.65.3252-1.34.4595-2.0576q.268-1.43.6264-3.0429L168.4777,78.32a.9773.9773,0,0,1,.0288-.1357,16.8332,16.8332,0,0,0,.5005-2.5054,8.9279,8.9279,0,0,0-.126-2.6582,4.251,4.251,0,0,0-3.0025-1.8647,23.6539,23.6539,0,0,0-7.5068,4.7915Z"/><path class="cls-2" d="M152.6093,49.5023q4.6441,0,7.4776,4.5309a20.1515,20.1515,0,0,1,8.1421-3.894,52.1743,52.1743,0,0,1,5.7234-.335q27.1846.0009,19.9416,34.1421l-3.7172,29.2046a9.6676,9.6676,0,0,1,7.434,4.7793l-.8852,7.2568-1.2388,1.77a9.86,9.86,0,0,1-4.4248,1.5933H119.5537a14.1861,14.1861,0,0,1-2.832-3.0093q-1.062-10.4413,10.0893-12.39l5.8409-41.9488a10.0314,10.0314,0,0,1-1.7094.1532,7.5724,7.5724,0,0,1-6.4327-3.5164L125.749,59.52l1.9468-2.124.8853-.708,9.0268-2.6548,1.416-.354,1.416-.354,8.3189-2.832,1.416-.708a11.2207,11.2207,0,0,1,2.4345-.2829m5.1757,64.8a19.698,19.698,0,0,0,6.3727-1.1513q.3531-1.2357.62-2.6548.2652-1.4143.62-3.0088l4.0708-29.0283a17.7446,17.7446,0,0,0,.5312-2.6548,10.09,10.09,0,0,0-.1772-3.186A5.2794,5.2794,0,0,0,165.751,70.14a24.5847,24.5847,0,0,0-8.3194,5.31l-5.31,37.7007a14.0791,14.0791,0,0,0,5.6634,1.1513m-5.1757-66.8v0a13.28,13.28,0,0,0-2.8681.33,2,2,0,0,0-.4608.1636l-1.2947.6473-8.1116,2.7615-1.3353.3338-1.416.354c-.0265.0066-.0529.0139-.0792.0216l-9.0268,2.6548a2,2,0,0,0-.6849.3568l-.8853.708a2.0015,2.0015,0,0,0-.2252.2105l-1.9468,2.1241a2.0011,2.0011,0,0,0-.5038,1.0566l-1.2392,8.3189a2,2,0,0,0,.3459,1.45,9.5218,9.5218,0,0,0,7.4576,4.3437l-5.31,38.1386c-7.51,1.7869-11.0631,6.6939-10.2929,14.2664a2,2,0,0,0,.4032,1.0153,15.4807,15.4807,0,0,0,3.3121,3.4576,2,2,0,0,0,1.1065.334H191.062a1.9848,1.9848,0,0,0,.2636-.0175,11.8738,11.8738,0,0,0,5.3084-1.9375,2,2,0,0,0,.4914-.4915l1.2387-1.77a1.9986,1.9986,0,0,0,.3467-.9046l.8853-7.2568a2,2,0,0,0-.2892-1.3022,11.6637,11.6637,0,0,0-6.9093-5.3272l3.47-27.2628c2.8128-13.3117,1.7516-23.131-3.1541-29.1875-3.9172-4.836-10.2293-7.2883-18.7611-7.2885a54.4355,54.4355,0,0,0-5.9432.3471,2.0107,2.0107,0,0,0-.2656.0476,23.7466,23.7466,0,0,0-7.2245,3.0366,9.9933,9.9933,0,0,0-7.91-3.7332ZM159.31,76.451a22.6558,22.6558,0,0,1,6.6755-4.2674,3.2234,3.2234,0,0,1,1.9512,1.2506,7.6583,7.6583,0,0,1,.0768,2.1265,15.7984,15.7984,0,0,1-.4693,2.3492,1.9948,1.9948,0,0,0-.0574.2713l-4.06,28.9485c-.2249,1.0084-.432,2.0165-.616,2.9979-.0936.4991-.1967.9838-.3086,1.45a16.9873,16.9873,0,0,1-4.718.7247,12.42,12.42,0,0,1-3.4567-.479L159.31,76.451Z"/><path class="cls-3" d="M220.0861,131.3685q-.9837,0-1.9932-.0493c-6.1685-.5015-10.793-3.9688-13.7764-10.3086a1.0038,1.0038,0,0,1-.0952-.4258,9.99,9.99,0,0,0-.6484-3.3765.9985.9985,0,0,1-.0518-.2163l-.354-2.832a.9921.9921,0,0,1,.0025-.2661l6.2377-43.4908a10.6914,10.6914,0,0,1-7.375-5.643,1.0017,1.0017,0,0,1-.102-.6026l.8853-6.1953a.9925.9925,0,0,1,.1831-.4492,19.2692,19.2692,0,0,1,4.854-4.666l2.4287-1.3906,8.5844-8.2344,3.6133-4.1353.3179-.4765a30.7328,30.7328,0,0,1,2.8491-3.4951,19.681,19.681,0,0,1,4.0078-3.1739,1,1,0,0,1,.5244-.1484h.7081c.2524-.0166.5546-.0254.85-.0254,3.0317,0,5.3125.9658,6.78,2.8706,2.252,2.9243,2.5,7.8833.753,15.1338.5341-.0215,1.0527-.0327,1.5507-.0327,6.9742,0,10.93,2.1548,11.7569,6.4038a.9948.9948,0,0,1,.0185.1792c.0542,4.55-1.0918,8.0454-3.4067,10.3882-2.334,2.3623-5.8647,3.56-10.4941,3.56-.8018,0-1.6475-.0356-2.524-.1069l-5.1694,37.3926v1.4087h.3076c2.5078-2.8775,5.3413-4.336,8.4282-4.336a11.63,11.63,0,0,1,4.26.8662.9991.9991,0,0,1,.2173.1187c3.3037,2.38,4.3857,5.8931,3.2158,10.4414a.9884.9884,0,0,1-.1362.3057c-6.64,9.958-15.7935,15.0078-27.2066,15.0078Z"/><path class="cls-2" d="M231.7361,32.7674q11.0044,0,6.23,18.08,1.51-.1078,2.8542-.1078,9.6849,0,10.7752,5.5946.1548,12.938-12.9007,12.9367a31.7017,31.7017,0,0,1-3.3835-.1926l-5.31,38.4092v2.4775h1.77q3.5924-4.3358,7.966-4.3359a10.5861,10.5861,0,0,1,3.8929.7964q4.4223,3.186,2.832,9.3809-9.7082,14.5606-26.3758,14.5625-.96,0-1.944-.0484-8.6748-.7053-12.9209-9.7353a10.93,10.93,0,0,0-.708-3.7168l-.354-2.8321,6.372-44.4272a9.8772,9.8772,0,0,1-7.6113-5.31l.8853-6.1953a18.1894,18.1894,0,0,1,4.602-4.4248l2.4776-1.416,8.6733-8.3194,1.2388-1.4155,1.2392-1.416,1.2388-1.416.354-.5313a29.5682,29.5682,0,0,1,2.7437-3.3628,18.5972,18.5972,0,0,1,3.8056-3.0092h.708q.4363-.0256.85-.0256m0-2h0q-.4423,0-.9066.0256h-.6513a2,2,0,0,0-1.049.2972,20.6758,20.6758,0,0,0-4.2121,3.34,31.6752,31.6752,0,0,0-2.927,3.5881l-.3063.459-1.1529,1.3178-1.2391,1.4158-1.1811,1.35-8.4324,8.0882-2.2635,1.2937q-.06.0342-.1174.0726a20.2642,20.2642,0,0,0-5.1055,4.9065,2.0006,2.0006,0,0,0-.3666.8992l-.8853,6.1953a2,2,0,0,0,.205,1.2046,11.525,11.525,0,0,0,7.1463,5.9185l-6.1119,42.6127a1.9993,1.9993,0,0,0-.0048.532l.354,2.832a2.008,2.008,0,0,0,.1038.4323,9.001,9.001,0,0,1,.5888,3.0365,2,2,0,0,0,.19.8516c3.147,6.6874,8.0485,10.347,14.5684,10.8771q.0319.0027.0639.0042c.6853.0337,1.3724.0508,2.0422.0508,11.7693,0,21.2033-5.1992,28.04-15.4531a2.0023,2.0023,0,0,0,.2729-.6112c1.5977-6.2117-1.0758-9.6833-3.6-11.5018a1.9994,1.9994,0,0,0-.435-.2377,12.6189,12.6189,0,0,0-4.627-.936,11.2644,11.2644,0,0,0-7.61,3.0843l4.9063-35.4888c.57.0308,1.1248.0463,1.6612.0463,4.9063,0,8.6763-1.2977,11.2053-3.8572,2.51-2.54,3.753-6.2756,3.6953-11.1034a2.0061,2.0061,0,0,0-.0368-.3584c-.9318-4.7857-5.2176-7.2123-12.7383-7.2123q-.1437,0-.29.0012c1.49-6.8884,1.0851-11.7165-1.2222-14.7122-1.6665-2.1637-4.2141-3.2609-7.5721-3.261Z"/><path class="cls-3" d="M280.5577,130.7093c-19.7817-.0005-30.9921-11.1729-33.3212-33.2066-.3648-25.1381,12.142-41.663,37.1679-49.2065a.9651.9651,0,0,1,.1821-.0366,71.371,71.371,0,0,1,7.5518-.4238c21.1353,0,32.8408,11.0473,34.791,32.8349a.9772.9772,0,0,1,.0039.1079c-.4795,25.624-13.1089,42.1988-37.5366,49.2627a.9741.9741,0,0,1-.14.03,63.6953,63.6953,0,0,1-8.6968.6377Zm.4517-20.5576a10.7546,10.7546,0,0,0,5.6553,1.813,22.6493,22.6493,0,0,0,4.7549-2.5508,35.3814,35.3814,0,0,0,6.7876-20.0122,27.5552,27.5552,0,0,0-5.3155-20.9453,18.3648,18.3648,0,0,0-2.48-.9908,15.2881,15.2881,0,0,0-2.9639-.5595,17.388,17.388,0,0,0-5.0527,2.5371,31.1008,31.1008,0,0,0-6.0884,22.5356,1,1,0,0,1,.0044.1616A30.3747,30.3747,0,0,0,281.0094,110.1517Z"/><path class="cls-2" d="M292.1381,48.8362q30.9352,0,33.795,31.9241-.7091,37.8793-36.8144,48.3208a62.3954,62.3954,0,0,1-8.5612.6286q-28.91,0-32.3265-32.3118-.531-36.9917,36.4619-48.144a70.119,70.119,0,0,1,7.4452-.4177m-5.3222,64.1379a23.4021,23.4021,0,0,0,5.3106-2.832,36.2076,36.2076,0,0,0,7.08-20.709,28.3035,28.3035,0,0,0-5.664-21.771,19.3986,19.3986,0,0,0-2.8321-1.15,16.5474,16.5474,0,0,0-3.3632-.62,18.2893,18.2893,0,0,0-5.6641,2.832,31.9479,31.9479,0,0,0-6.3711,23.3638,31.2375,31.2375,0,0,0,4.9551,18.7622,11.6837,11.6837,0,0,0,6.5488,2.124m5.3222-66.1379a72.4591,72.4591,0,0,0-7.6579.429,2.0033,2.0033,0,0,0-.3645.0738c-25.5051,7.6876-38.2513,24.54-37.8846,50.0877q.0014.0909.0109.1815c2.3917,22.6281,13.9371,34.1015,34.3155,34.1015a64.6771,64.6771,0,0,0,8.8361-.6477,1.9907,1.9907,0,0,0,.2807-.06c24.8977-7.2,37.77-24.0915,38.2584-50.2046a1.9683,1.9683,0,0,0-.0076-.2158c-2.0043-22.392-14.0448-33.7457-35.787-33.7457Zm-9.0326,23.3283a16.4079,16.4079,0,0,1,4.4437-2.242,13.9251,13.9251,0,0,1,2.5683.4993,17.1144,17.1144,0,0,1,2.1238.8328c4.3321,5.7823,5.9618,12.3046,4.9816,19.9233q-.0124.0962-.0154.1931a34.3985,34.3985,0,0,1-6.4956,19.3146,21.8432,21.8432,0,0,1-4.2,2.2676,9.6114,9.6114,0,0,1-4.7637-1.5069,29.3743,29.3743,0,0,1-4.439-17.2534A2.0052,2.0052,0,0,0,277.3,91.87a30.1207,30.1207,0,0,1,5.8054-21.7052Z"/><path class="cls-3" d="M326.6412,129.55a.9981.9981,0,0,1-.5532-.167,14.8775,14.8775,0,0,1-3.0718-3.2334.9939.9939,0,0,1-.2016-.5078c-.7334-7.206,2.7881-11.8052,10.1919-13.3389l5.5644-39.9624c-.1826.01-.3633.0147-.541.0147a8.553,8.553,0,0,1-7.249-3.939,1.0015,1.0015,0,0,1-.1729-.7251l1.2393-8.3188a.9993.9993,0,0,1,.2519-.5283l1.9473-2.1241a1.0912,1.0912,0,0,1,.1123-.1049l.8848-.7081a1.0028,1.0028,0,0,1,.3428-.1787l9.0263-2.6548,2.8721-.7187,8.1748-2.7866,1.3555-.6778a.99.99,0,0,1,.23-.0815,12.2778,12.2778,0,0,1,2.6514-.3066,9.2291,9.2291,0,0,1,7.7051,4.0869,22.06,22.06,0,0,1,7.6709-3.42,1.14,1.14,0,0,1,.1328-.024,53.5557,53.5557,0,0,1,5.834-.3408c8.2158,0,14.2666,2.3277,17.9843,6.9175,4.7168,5.8232,5.7041,15.3892,2.9356,28.4321L398.38,112.31a10.6564,10.6564,0,0,1,7.166,5.09.991.991,0,0,1,.1446.6509l-.8848,7.2568a.9975.9975,0,0,1-.1729.4522l-1.2382,1.77a1.0076,1.0076,0,0,1-.2461.2461,10.8967,10.8967,0,0,1-4.8672,1.7651.9906.9906,0,0,1-.1319.0088Zm33.668-17.0371a13.258,13.258,0,0,0,4.5635.7891,18.4051,18.4051,0,0,0,5.55-.9327c.1728-.6572.3271-1.3471.459-2.0571q.27-1.4312.6269-3.0434L375.5651,78.32a1.0543,1.0543,0,0,1,.0283-.1357,16.832,16.832,0,0,0,.501-2.5054,8.9174,8.9174,0,0,0-.126-2.6582,4.251,4.251,0,0,0-3.0029-1.8647,23.6586,23.6586,0,0,0-7.5069,4.7915Z"/><path class="cls-2" d="M359.6966,49.5023q4.6442,0,7.4777,4.5309a20.1525,20.1525,0,0,1,8.1416-3.894,52.2043,52.2043,0,0,1,5.7237-.335q27.1857,0,19.9414,34.1421l-3.7168,29.2046a9.6654,9.6654,0,0,1,7.4336,4.7793l-.8848,7.2568-1.2383,1.77a9.8638,9.8638,0,0,1-4.4258,1.5933H326.6411a14.1989,14.1989,0,0,1-2.832-3.0093q-1.062-10.4413,10.0888-12.39l5.8409-41.9488a10.03,10.03,0,0,1-1.7094.1532,7.5711,7.5711,0,0,1-6.4322-3.5164l1.2392-8.3189,1.9473-2.124.8848-.708,9.0263-2.6548,1.416-.354,1.4161-.354,8.3193-2.832,1.416-.708a11.2205,11.2205,0,0,1,2.4344-.2829m5.1761,64.8a19.701,19.701,0,0,0,6.3729-1.1513q.3516-1.2357.6191-2.6548.2652-1.4143.6192-3.0088l4.0713-29.0283a17.7446,17.7446,0,0,0,.5312-2.6548,10.1033,10.1033,0,0,0-.1767-3.186,5.28,5.28,0,0,0-4.0713-2.4781,24.5847,24.5847,0,0,0-8.3194,5.31l-5.31,37.7007a14.0781,14.0781,0,0,0,5.6632,1.1513m-5.176-66.8,0,2,0-2a13.2792,13.2792,0,0,0-2.8681.33,2.0011,2.0011,0,0,0-.4608.1636l-1.2946.6473-8.1121,2.7615-1.3354.3338-1.4159.354c-.0266.0066-.0531.0139-.0793.0216l-9.0264,2.6548a1.9989,1.9989,0,0,0-.6852.3571l-.8848.708a2.0024,2.0024,0,0,0-.2247.21l-1.9472,2.124a2.0012,2.0012,0,0,0-.504,1.0568l-1.2392,8.3189a2,2,0,0,0,.3458,1.45,9.52,9.52,0,0,0,7.4572,4.3439l-5.31,38.1386c-7.51,1.787-11.0626,6.694-10.2924,14.2664a2,2,0,0,0,.4034,1.0156,15.4977,15.4977,0,0,0,3.3119,3.4573,2,2,0,0,0,1.1065.334h71.5078a1.9859,1.9859,0,0,0,.2636-.0175,11.8793,11.8793,0,0,0,5.3091-1.9373,1.9994,1.9994,0,0,0,.4919-.492l1.2383-1.77a2.0013,2.0013,0,0,0,.3465-.9045l.8847-7.2568a2,2,0,0,0-.2891-1.3018,11.6616,11.6616,0,0,0-6.909-5.3275l3.47-27.2626c2.8133-13.3118,1.7524-23.1313-3.1534-29.1879-3.9172-4.8361-10.2295-7.2882-18.7616-7.2882a54.45,54.45,0,0,0-5.9434.3471,2.0107,2.0107,0,0,0-.2656.0476,23.7453,23.7453,0,0,0-7.2241,3.0367,9.9943,9.9943,0,0,0-7.91-3.7333Zm6.7011,28.9487a22.6558,22.6558,0,0,1,6.6755-4.2674,3.2245,3.2245,0,0,1,1.9513,1.25,7.658,7.658,0,0,1,.0768,2.1257,15.8118,15.8118,0,0,1-.4694,2.35,1.9916,1.9916,0,0,0-.0574.2713l-4.06,28.949c-.2252,1.0119-.4321,2.02-.6154,2.9974-.0927.4958-.1959.98-.3085,1.45a16.991,16.991,0,0,1-4.7178.7246,12.4185,12.4185,0,0,1-3.4565-.479l4.9816-35.3722Z"/><path class="cls-3" d="M484.9967,163.24a1.0021,1.0021,0,0,1-.5293-.1514,11.605,11.605,0,0,1-3.3213-3.6719,1.009,1.009,0,0,1-.1553-.4643c-.38-4.9961.6036-8.7979,2.9219-11.2994,2.2051-2.3789,5.6153-3.5849,10.1358-3.5849l.2041.001a6.8749,6.8749,0,0,0,2.1-1.0289l.5859-1.9047L500.72,114.1c-5.8681,8.6651-15.6347,13.7051-29.1191,15.0054l-.9541.3183a.9979.9979,0,0,1-.3164.0513h-60.18a.9993.9993,0,0,1-.5283-.1509,11.5885,11.5885,0,0,1-3.3223-3.6718,1.0067,1.0067,0,0,1-.1553-.4644c-.38-4.9961.6036-8.7978,2.9219-11.2988,2.2051-2.3789,5.6153-3.585,10.1358-3.585l.2041.001a6.8865,6.8865,0,0,0,2.1-1.0288l.5859-1.9048L432.8639,30.386l-.1055-1.3667c-.3252-.0249-.6543-.0375-.9834-.0375a17.93,17.93,0,0,0-7.5927,1.9145c3.17,7.9946.7041,15.7588-7.34,23.0928a1.0018,1.0018,0,0,1-.3467.2065,24.4747,24.4747,0,0,1-7.7949,1.5415A8.952,8.952,0,0,1,401.61,52.869c-2.5977-2.9717-3.37-8.0435-2.3623-15.5059,3.6347-17.2124,14.76-27.0645,33.081-29.355A.9573.9573,0,0,1,432.4528,8h42.48a.9584.9584,0,0,1,.1241.0078l2.7705.3462h3.3a.9989.9989,0,0,1,.2607.0347l13.0986,3.54a.95.95,0,0,1,.1719.064l4.4248,2.1235a1.0259,1.0259,0,0,1,.1279.0728A30.2317,30.2317,0,0,1,509.8356,27.722a1.0079,1.0079,0,0,1,.0478.14A37.8024,37.8024,0,0,1,510.985,41.765h38.7939a.9584.9584,0,0,1,.1241.0078l2.77.3462h3.3a1.0031,1.0031,0,0,1,.2607.0346l13.0986,3.54a.9574.9574,0,0,1,.1719.0639l4.4248,2.1236a1.0466,1.0466,0,0,1,.128.0727,30.2333,30.2333,0,0,1,10.624,13.5327,1.0046,1.0046,0,0,1,.0478.14c3.542,13.46-.0566,26.1465-10.6992,37.7246,10.959,10.3686,12.5781,24.6284,4.8076,42.4028-5.0635,12.42-15.9638,19.5313-32.39,21.1162l-.9551.3189a1.008,1.008,0,0,1-.3164.0513Zm41.8252-22.3111a34.3449,34.3449,0,0,0,6.9736.7847c8.4619,0,14.127-3.9712,17.3184-12.14,1.0469-5.6567.3574-9.9951-2.0488-12.8959-2.7012-3.2559-7.7149-4.9068-14.9024-4.9068-1,0-2.0547.0322-3.1435.0957a15.28,15.28,0,0,0-.6914,3.0611q-.2667,2.1276-.6211,4.7871Zm-74.8457-33.7646a34.3563,34.3563,0,0,0,6.9746.7851c8.4609,0,14.126-3.9717,17.3174-12.1406,1.0469-5.6563.3574-9.9951-2.0488-12.896-2.7012-3.2559-7.7149-4.9067-14.9024-4.9067-1,0-2.0547.0322-3.1435.0957a15.28,15.28,0,0,0-.6914,3.061q-.2667,2.1278-.6211,4.7871Zm82.11-18.4551a32.602,32.602,0,0,0,6.376.6938c7.5147,0,12.4434-3.351,15.0655-10.2436.6611-5.1983-.1309-9.1182-2.3555-11.6514-2.2432-2.5561-6.0742-3.8515-11.3887-3.8515-1.2529,0-2.6055.0722-4.0293.2148a14.3036,14.3036,0,0,0-.7822,4.7354,1.15,1.15,0,0,1-.01.1425Zm-34.9033-23.124a31.1232,31.1232,0,0,1,6.9844,9.5849l1.542-11.0195-.1055-1.3662c-.3174-.0239-.6386-.0361-.96-.0361a16.7515,16.7515,0,0,0-6.0635,1.2543C500.1041,64.56,499.6412,65.0838,499.1832,65.5853ZM459.2408,54.9446a32.5949,32.5949,0,0,0,6.376.6939c7.5147,0,12.4434-3.3511,15.0655-10.2432.6611-5.1987-.1309-9.1181-2.3555-11.6518-2.2432-2.5562-6.0742-3.8516-11.3887-3.8516-1.2529,0-2.6055.0723-4.0293.2149a14.303,14.303,0,0,0-.7822,4.7353,1.1514,1.1514,0,0,1-.01.1426Z"/><path class="cls-2" d="M474.933,9l2.832.354h3.3623l13.0987,3.54,4.4248,2.1236q6.5463,4.4267,10.2656,13.0981a36.3452,36.3452,0,0,1,.9309,14.6489h39.9312l2.832.354h3.3623l13.0987,3.54,4.4248,2.1235a29.1222,29.1222,0,0,1,10.2656,13.0982q5.31,20.1782-11.15,37.5239,16.9922,15.2249,5.31,41.9487-7.4342,18.233-31.6826,20.5322l-1.0625.3545h-60.18a10.7749,10.7749,0,0,1-3.0088-3.3633q-1.0491-13.8088,12.06-13.8088c.1086,0,.2191.0008.3291.0022a7.9646,7.9646,0,0,0,2.8321-1.416l.708-2.3008,4.5271-32.3575q-7.78,16.9024-31.0514,19.1251l-1.0625.354h-60.18a10.7674,10.7674,0,0,1-3.0088-3.3628q-1.0491-13.809,12.06-13.8083c.1086,0,.2191.0007.3291.0021a7.9709,7.9709,0,0,0,2.832-1.416l.7081-2.3007,10.7968-77.1719-.1767-2.3013a13.5912,13.5912,0,0,0-1.9168-.1341,19.4991,19.4991,0,0,0-8.88,2.4354q5.31,11.86-6.7266,22.833A23.3851,23.3851,0,0,1,408.7,54.737q-10.788,0-8.4615-17.24Q405.5488,12.3659,432.4525,9H474.933m-9.3161,47.638q11.9162,0,16.0417-10.9993,2.1906-16.7484-14.7207-16.7474a42.5455,42.5455,0,0,0-4.7491.2864,15.1127,15.1127,0,0,0-1.0625,5.6641l-3.0087,20.8862a34.571,34.571,0,0,0,7.4993.91m40.9979,22.5481,2.0993-15.0045-.1768-2.3012a13.4054,13.4054,0,0,0-1.893-.1323,17.8291,17.8291,0,0,0-6.6637,1.4168c-.705.8292-1.4367,1.655-2.2146,2.4747a29.2737,29.2737,0,0,1,8.8488,13.5465m33.8476,11.2165q11.9163,0,16.0417-10.9993,2.1906-16.7484-14.7207-16.7473a42.4946,42.4946,0,0,0-4.749.2864,15.1122,15.1122,0,0,0-1.0625,5.664l-3.0088,20.8863a34.5774,34.5774,0,0,0,7.4993.91m-81.5117,18.5464q13.3012,0,18.2831-12.865,3.5847-19.0812-17.9172-19.078-1.8348,0-3.8543.139a15.6577,15.6577,0,0,0-.9727,3.8936q-.2666,2.124-.62,4.7793l-3.0088,22.125a36.2192,36.2192,0,0,0,8.09,1.0061m74.8448,33.7644q13.3031,0,18.2838-12.8653,3.5847-19.08-17.9172-19.0775-1.8348,0-3.8543.1391a15.6569,15.6569,0,0,0-.9727,3.8935q-.2665,2.124-.62,4.7793l-3.0088,22.125a36.2234,36.2234,0,0,0,8.0893,1.0059M474.933,7H432.4525a2.0177,2.0177,0,0,0-.2481.0154c-18.79,2.3493-30.2032,12.4655-33.9226,30.0677q-.0153.0724-.0251.1458c-1.0487,7.7653-.1982,13.0963,2.6,16.2977a9.9078,9.9078,0,0,0,7.8435,3.21A25.4481,25.4481,0,0,0,416.822,55.14a2,2,0,0,0,.6938-.4123c8.09-7.376,10.7515-15.2073,7.9307-23.3042a16.23,16.23,0,0,1,6.3285-1.4421l.0542,0,.0286.3726-10.7447,76.7992-.4582,1.489a5.7354,5.7354,0,0,1-1.3873.6614l-.0651,0c-4.81,0-8.4668,1.3136-10.869,3.9051-2.5154,2.7136-3.5873,6.7694-3.1858,12.0547a2,2,0,0,0,.3112.9288,12.5124,12.5124,0,0,0,3.6351,3.98,2,2,0,0,0,1.0568.302h60.18a2,2,0,0,0,.6322-.1025l.8478-.2825c12.0924-1.1865,21.2663-5.3382,27.3946-12.3752l-3.2464,23.203-.4582,1.4893a5.7265,5.7265,0,0,1-1.3869.6614l-.0655,0c-4.81,0-8.4666,1.3136-10.8689,3.9052-2.5155,2.7137-3.5874,6.77-3.1859,12.055a2,2,0,0,0,.3111.9287,12.5216,12.5216,0,0,0,3.6341,3.98,2,2,0,0,0,1.0579.3027h60.18a1.9991,1.9991,0,0,0,.6329-.1028l.8473-.2827c16.7628-1.6451,27.9039-8.9607,33.1169-21.7461,7.7718-17.7778,6.31-32.18-4.3537-42.8024,10.38-11.65,13.8376-24.4028,10.2766-37.9343a1.9867,1.9867,0,0,0-.0958-.2789,31.2066,31.2066,0,0,0-10.9836-13.9671,2.0119,2.0119,0,0,0-.255-.1463l-4.4248-2.1236a2.0137,2.0137,0,0,0-.3435-.1276l-13.0987-3.54a1.9991,1.9991,0,0,0-.5218-.0693H552.735l-2.7084-.3385a1.9984,1.9984,0,0,0-.2481-.0155H512.0868a39.11,39.11,0,0,0-1.2363-13.1579,1.9916,1.9916,0,0,0-.0959-.2789,31.2061,31.2061,0,0,0-10.9835-13.967,2.0005,2.0005,0,0,0-.255-.1464l-4.4249-2.1235a1.9908,1.9908,0,0,0-.3435-.1276l-13.0986-3.54a1.9991,1.9991,0,0,0-.5218-.0693H477.89l-2.7085-.3386A2.0149,2.0149,0,0,0,474.933,7ZM463.6585,31.0411c1.1522-.0993,2.2511-.1495,3.2795-.15h.0016c5.0128,0,8.5907,1.1811,10.6356,3.5108,2.01,2.29,2.7264,5.9059,2.1294,10.7479-2.4683,6.3835-7.0789,9.488-14.0877,9.488a30.3838,30.3838,0,0,1-5.25-.4983l2.7389-19.0128a2,2,0,0,0,.02-.2851,13.4664,13.4664,0,0,1,.5322-3.8009Zm37.5162,33.8046a15.5726,15.5726,0,0,1,5.47-1.0974h.03l.0284.3708-1.0969,7.84a32.75,32.75,0,0,0-5.0369-6.42q.2988-.3376.6052-.6933Zm37.3293-.04c1.1522-.0993,2.2511-.15,3.2794-.15h.0016c5.0129,0,8.5908,1.1811,10.6357,3.5108,2.01,2.29,2.7265,5.9059,2.1294,10.7478-2.4683,6.3835-7.0788,9.488-14.0877,9.488a30.3757,30.3757,0,0,1-5.25-.4983l2.7389-19.0127a2,2,0,0,0,.02-.2852,13.4657,13.4657,0,0,1,.5321-3.8008ZM456.9193,79.0641c.826-.0385,1.6283-.0579,2.3974-.0579h.002c6.8747,0,11.6283,1.5289,14.1305,4.5447,2.1956,2.6464,2.8186,6.6771,1.8526,11.9825-3.0305,7.6816-8.3807,11.4158-16.3511,11.4158a32.2428,32.2428,0,0,1-5.8571-.5833l2.7577-20.2783q.3552-2.6719.6228-4.8a14.8331,14.8331,0,0,1,.4452-2.2238Zm74.8455,33.7647c.826-.0385,1.6283-.0579,2.3974-.058h.002c6.8748,0,11.6285,1.529,14.13,4.5448,2.1956,2.6463,2.8186,6.6767,1.8526,11.9819-3.03,7.6817-8.3809,11.4161-16.3518,11.4161a32.2522,32.2522,0,0,1-5.8564-.5831l2.7577-20.2783q.3553-2.6719.6228-4.8a14.8392,14.8392,0,0,1,.4452-2.2237Z"/><path class="cls-2" d="M237.9658,50.8472l-8.0138.36c2.1211-2.1211,10.517-1.7046,10.517-1.7046Z"/><path d="M210.5312,69.6089h5.2247s-4.7553,1.7092-7.5292.8506S210.5312,69.6089,210.5312,69.6089Z"/><path d="M160.9535,113.7951s-4.1435-.5116-5.202,2.1588a38.0222,38.0222,0,0,0-1.6834,6.3774S157.64,114.9229,160.9535,113.7951Z"/><path d="M368.2072,113.3866s-4.1435-.5117-5.202,2.1588a38.0329,38.0329,0,0,0-1.6834,6.3773S364.8936,114.5144,368.2072,113.3866Z"/><path d="M509.8473,42.7648s-.367,4.8535-1.95,7.8906,4.1493-5.6,3.9354-7.8905"/><path d="M506.1043,77.6423s2.0538,6.0926,1.5165,10.927,1.5991-7.5007-.7134-12.5756"/><path d="M501.12,111.5714s3.2708-7.9392,3.49-10.7637a50.9436,50.9436,0,0,1-3.2858,16.1917C498.1522,124.885,501.12,111.5714,501.12,111.5714Z"/><path d="M451.0078,108.003s-4.4373-1.4278-4.72-3.3457A18.1822,18.1822,0,0,0,451.52,106.33C453.9241,106.5752,451.0078,108.003,451.0078,108.003Z"/><path d="M525.7984,141.7369s-4.8664-1.4277-5.1766-3.3456a21.2885,21.2885,0,0,0,5.7384,1.6728C528.9968,140.3092,525.7984,141.7369,525.7984,141.7369Z"/><path d="M80.0825,100.4072h6.9107a13.0186,13.0186,0,0,1-6.9107,1.8259C76.0842,102.13,80.0825,100.4072,80.0825,100.4072Z"/><path class="cls-4" d="M45.8383,119.4059c.13-.1711,1.6756.66,2.7176,2.2777l.36.6261a4.0558,4.0558,0,0,1,.2413.68,5.4915,5.4915,0,0,1,.1795.6719l.0442.6408a3.4235,3.4235,0,0,1-.0639,1.0015l-.0845.4755a6.9811,6.9811,0,0,1-.6275,1.246,8.2628,8.2628,0,0,1-1.6922,1.8668c-1.3577,1.12-2.9182,1.72-3.0462,1.4769-.1288-.2276,1.1118-1.23,2.0654-2.4535a8.4377,8.4377,0,0,0,1.0949-1.7635,9.591,9.591,0,0,0,.3333-.9435l.0818-.3066a2.1088,2.1088,0,0,0,.1361-.6509l.045-.4289a4.3245,4.3245,0,0,0-.05-.4776,2.9234,2.9234,0,0,0-.0765-.517l-.1793-.526C46.7951,120.8712,45.6261,119.6312,45.8383,119.4059Z"/><path class="cls-4" d="M185.9384,107.2125c-.28-.0677,1.1383-6.7553,2.2212-13.6642.5267-3.4559,1.0162-6.9584,1.2744-9.6929.302-2.7313.3834-4.69.4341-5.0446-.0153-.6923.876-7.6126-.1332-14.1833-.4919-3.2548-1.6538-6.4044-3.3814-8.0617a5.9618,5.9618,0,0,0-2.4-1.5039,10.65,10.65,0,0,1-1.0822-.2942c-.0118-.0611.4182-.1968,1.1688-.0906a5.7056,5.7056,0,0,1,2.823,1.3222c2.094,1.67,3.5427,5.0072,4.2319,8.3711a59.2794,59.2794,0,0,1,.725,14.588c-.0509.3593-.19,2.3571-.5953,5.1125-.3613,2.7627-.998,6.278-1.7035,9.7269-.7316,3.4439-1.553,6.8172-2.2379,9.3165A20.155,20.155,0,0,1,185.9384,107.2125Z"/><path class="cls-4" d="M244.1342,64.1854c-.0746-.1125.1737-.4577.5786-.9044.1942-.2308.4638-.4556.6891-.7482l.72-.8852c.2207-.31.3887-.6407.5791-.93.1613-.3.224-.5963.3337-.8351a3.121,3.121,0,0,0,.09-.8748,2.7064,2.7064,0,0,0-.0544-.8273,3.9488,3.9488,0,0,0-.8486-1.6314c-.8912-1.152-2.2047-2.0073-2.0873-2.2481.0986-.2436,1.6879.1547,3.06,1.2636a6.3762,6.3762,0,0,1,.947.9361,4.7416,4.7416,0,0,1,.6362,1.099,3.871,3.871,0,0,1,.3039,1.45,4.21,4.21,0,0,1-.356,1.46,8.713,8.713,0,0,1-.6631,1.0917c-.2966.3246-.5925.6865-.9227.9839-.348.2732-.6947.5367-1.02.7734a6.7777,6.7777,0,0,1-.9474.53C244.6039,64.1652,244.2089,64.298,244.1342,64.1854Z"/><path class="cls-4" d="M225.6433,105.3607c-.5354-.0739,1.113-15.2234,1.2229-16.0194s2.55-15.275,3.0859-15.2012-1.037,14.6727-1.1469,15.4688S226.1788,105.4345,225.6433,105.3607Z"/><path class="cls-4" d="M311.9387,110.4447a13.9227,13.9227,0,0,1,1.4844-3.2215c.2317-.4752.5469-.9555.77-1.5222l.749-1.7579.8125-1.8764c.2546-.6489.4523-1.3343.6857-2.0062a50.1168,50.1168,0,0,0,2.4845-11.7826,54.12,54.12,0,0,0,.1379-11.6581,60.8054,60.8054,0,0,0-1.2295-7.3985,21.9835,21.9835,0,0,1-.7353-3.3292c.1261-.0563.78,1.1583,1.4663,3.1146a45.1136,45.1136,0,0,1,1.8708,7.4323,48.8329,48.8329,0,0,1,.4367,12.041,46.1727,46.1727,0,0,1-3.1351,12.0657c-.2821.6757-.53,1.3624-.8365,2.0088-.3307.634-.6557,1.2568-.97,1.8594l-.911,1.7211a16.7615,16.7615,0,0,1-.934,1.4652A13.671,13.671,0,0,1,311.9387,110.4447Z"/><path class="cls-4" d="M392.0587,107.2125c-.28-.0677,1.1384-6.7553,2.2213-13.6642.5267-3.4559,1.0161-6.9584,1.2743-9.6929.302-2.7313.3834-4.69.4342-5.0446-.0154-.6923.876-7.6126-.1333-14.1833-.4919-3.2548-1.6538-6.4044-3.3814-8.0617a5.9612,5.9612,0,0,0-2.4-1.5039,10.6332,10.6332,0,0,1-1.0821-.2942c-.0119-.0611.4182-.1968,1.1687-.0906a5.7053,5.7053,0,0,1,2.823,1.3222c2.0941,1.67,3.5428,5.0072,4.232,8.3711a59.2794,59.2794,0,0,1,.725,14.588c-.051.3593-.19,2.3571-.5953,5.1125-.3614,2.7627-.9981,6.278-1.7036,9.7269-.7316,3.4439-1.5529,6.8172-2.2378,9.3165A20.1432,20.1432,0,0,1,392.0587,107.2125Z"/><path class="cls-4" d="M497.766,53.5023c-.281-.1966,2.2287-3.7629,3.5649-7.8908a22.6167,22.6167,0,0,0,1.1512-8.96,23.7432,23.7432,0,0,0-1.9026-8.54c-1.5819-3.8925-4.3049-7.069-4.1382-7.2274.1978-.2366,3.3806,2.6808,5.3888,6.6343a23.0763,23.0763,0,0,1,2.6065,9.0284,22.3206,22.3206,0,0,1-1.8085,9.5471C500.8635,50.3308,497.9062,53.6349,497.766,53.5023Z"/><path class="cls-4" d="M492.4413,116.9741a15.3747,15.3747,0,0,1,1.7563-3.2915c.2769-.482.6176-.98.9109-1.5463.2782-.5755.5713-1.1821.8748-1.81.3068-.6259.624-1.273.9469-1.9315a21.59,21.59,0,0,0,.8258-2.0689,44.439,44.439,0,0,0,2.92-12.292,47.3565,47.3565,0,0,0-.1137-12.2257,53.0072,53.0072,0,0,0-1.7438-7.6825,28.06,28.06,0,0,1-1.0526-3.4251c.1209-.0672.91,1.1527,1.7671,3.16a41.8437,41.8437,0,0,1,2.3925,7.7076,44.1058,44.1058,0,0,1,.697,12.6727,42.0654,42.0654,0,0,1-3.5919,12.6238,21.1109,21.1109,0,0,1-.979,2.07l-1.1051,1.91c-.3594.6131-.7067,1.2054-1.0361,1.7675-.3472.5484-.7413,1.0241-1.0721,1.4814A15.0924,15.0924,0,0,1,492.4413,116.9741Z"/><path class="cls-4" d="M419.5246,30.7052c.1272-.0448.4339.5982.8307,1.6307a9.76,9.76,0,0,1,.4523,1.8355,11.1153,11.1153,0,0,1,.203,2.1955,15.8419,15.8419,0,0,1-.533,4.2174c-.32,1.1562-.6526,1.9536-.6957,2.1044-.0727.1367-.4425.8846-1.0332,1.87a23.1675,23.1675,0,0,1-2.44,3.2254c-1.8975,2.1669-4.2148,3.7376-4.3814,3.511-.1609-.2021,1.7713-2.1,3.2982-4.3725a27.2852,27.2852,0,0,0,1.9516-3.2491c.4592-.9541.7464-1.65.814-1.7753.0368-.136.3837-.8339.764-1.8489a16.43,16.43,0,0,0,.8728-3.7475,12.0012,12.0012,0,0,0,.09-2.0259,13.36,13.36,0,0,0-.1069-1.7754C419.4557,31.47,419.3974,30.75,419.5246,30.7052Z"/><path class="cls-4" d="M575.8672,56.6382c.0553-.0388.2767.1831.6261.608l.6148.7819c.22.3143.4431.6867.6966,1.09a21.7014,21.7014,0,0,1,2.5867,6.551,25.4278,25.4278,0,0,1,.4925,7.2825,29.5419,29.5419,0,0,1-.5229,3.7627,30.6382,30.6382,0,0,1-1.0383,3.5187,41.7053,41.7053,0,0,1-2.8718,6.3539c-2.37,4.3746-5.5565,8.0143-5.7818,7.8164-.1874-.1494,2.5592-4.0334,4.5475-8.4427a45.7685,45.7685,0,0,0,2.3906-6.2844c.5445-1.8081.7848-3.1333.8415-3.38a34.43,34.43,0,0,0,.64-3.5188,25.5981,25.5981,0,0,0-.0586-6.8591,24.5174,24.5174,0,0,0-1.9-6.4472c-.19-.417-.365-.801-.5221-1.1455l-.4452-.8645C575.9248,56.9742,575.812,56.677,575.8672,56.6382Z"/><path class="cls-4" d="M560.7552,153.46c-.1966-.2633,4.8587-3.5356,8.3766-8.4205a33.7566,33.7566,0,0,0,4.0736-7.2413,34.389,34.389,0,0,0,1.3827-4.0852,37.6837,37.6837,0,0,0,1.0146-4.0658,44.4746,44.4746,0,0,0,.7774-8.0372,55.7239,55.7239,0,0,0-.5223-7.8923,24.2991,24.2991,0,0,1-.4635-3.5659c.13-.0428.6865,1.2992,1.2118,3.4224a43.5043,43.5043,0,0,1,1.1578,8.0051,42.2211,42.2211,0,0,1-.3833,8.3708,33.2914,33.2914,0,0,1-.9126,4.3086,31.3124,31.3124,0,0,1-1.608,4.2574,33.2382,33.2382,0,0,1-4.6416,7.3807,31.8484,31.8484,0,0,1-6.1986,5.6892,20.2,20.2,0,0,1-2.3109,1.4577C561.1333,153.3622,560.7917,153.517,560.7552,153.46Z"/><path class="cls-4" d="M356.6985,52.8362c-.0792-.2346.9363-.8509,2.19-1.1279.3156-.0484.6395-.093.95-.1266l.8853.026a6.034,6.034,0,0,1,.984.2088,5.0706,5.0706,0,0,1,.8451.514,4.8789,4.8789,0,0,1,1.2292,1.3663c.6655,1.1216.7008,2.3432.4252,2.3883-.2485.0527-.7606-.89-1.509-1.5274a4.7847,4.7847,0,0,0-1.703-.9181,5.6771,5.6771,0,0,0-2.0169-.55C357.9189,52.9915,356.7847,53.1111,356.6985,52.8362Z"/><path class="cls-4" d="M149.6113,53.3275c-.0791-.2346.9363-.8509,2.19-1.1279.3156-.0484.6394-.0931.95-.1266l.8853.026a6.034,6.034,0,0,1,.984.2088,5.0665,5.0665,0,0,1,.8451.5139,4.8765,4.8765,0,0,1,1.2292,1.3664c.6656,1.1216.7009,2.3431.4252,2.3883-.2485.0526-.7606-.89-1.5089-1.5274a4.7837,4.7837,0,0,0-1.7031-.9181,5.6762,5.6762,0,0,0-2.0168-.55C150.8317,53.4827,149.6975,53.6024,149.6113,53.3275Z"/><path class="cls-4" d="M127.9321,159.0609a15.5351,15.5351,0,0,1-1.8315-2.118c-.5453-.707-1.1247-1.6233-1.8294-2.6529-.6905-1.0384-1.3608-2.2747-2.1489-3.5965a159.704,159.704,0,0,1-9.1535-20.741c-5.7928-15.6131-10.2331-32.0994-10.7082-33.7359-.4778-1.6415-4.6179-17.5773-7.9965-33.2418C92.5489,55.1487,90.9867,47.4,89.8969,41.6c-.5423-2.9005-.9688-5.3132-1.2412-7.0044a14.092,14.092,0,0,1-.3245-2.6736,14.97,14.97,0,0,1,.7114,2.5965l1.6,6.9263c1.3181,5.7475,3.0847,13.4437,4.97,21.22,3.72,15.5663,8.06,31.4027,8.5364,33.0379.4736,1.6322,4.69,18.1277,10.1221,33.7821a178.319,178.319,0,0,0,8.5238,20.8518c.7287,1.3346,1.3419,2.5921,1.9731,3.6507.6448,1.0494,1.1675,1.9933,1.6554,2.7294A15.7044,15.7044,0,0,1,127.9321,159.0609Z"/></svg>